<?xml version="1.0" encoding="utf-8"?>

<!DOCTYPE svg PUBLIC "-//W3C//DTD SVG 1.1//EN" "http://www.w3.org/Graphics/SVG/1.1/DTD/svg11.dtd">
<svg version="1.1" id="Calque_1" xmlns="http://www.w3.org/2000/svg" xmlns:xlink="http://www.w3.org/1999/xlink" x="0px" y="0px"
	 viewBox="0 0 600 600">

		<path id="cran1" fill="#81AB78" d="M455.1,342.6l-1.5-0.2c0.1-1,0.2-1.9,0.2-2.9v0l1.5,0c0.8,0,1.5-0.6,1.5-1.4c0-0.8-0.6-1.5-1.4-1.5
				l-1.5,0c0-0.8,0-1.5-0.1-2.3c0-0.2,0-0.4,0-0.7l1.5-0.1c0.8-0.1,1.4-0.8,1.4-1.6c-0.1-0.8-0.8-1.4-1.6-1.4l-1.5,0.1l0,0
				c0-0.2-0.1-0.5-0.1-0.7c0-0.2-0.1-0.4-0.1-0.6c-0.1-0.5-0.1-1-0.2-1.6l1.5-0.3c0.8-0.1,1.3-0.9,1.2-1.7c-0.1-0.8-0.9-1.3-1.7-1.2
				l-1.5,0.3l0,0c-0.2-1-0.4-1.9-0.6-2.9l0,0l1.4-0.4c0.8-0.2,1.2-1,1-1.8c-0.2-0.8-1-1.2-1.8-1l-1.4,0.4c-0.3-0.9-0.6-1.9-0.9-2.8
				v0l1.4-0.5c0.8-0.3,1.1-1.2,0.8-1.9s-1.2-1.1-1.9-0.8l-1.4,0.5l0,0c-0.4-0.9-0.8-1.8-1.2-2.7l0,0l1.3-0.7c0.7-0.4,1-1.3,0.6-2
				c-0.4-0.7-1.3-1-2-0.6l-1.3,0.7c-0.5-0.9-1-1.7-1.5-2.5l1.2-0.8c0.7-0.4,0.9-1.4,0.4-2c-0.4-0.7-1.4-0.9-2-0.4l-1.3,0.8l0,0
				c-0.6-0.8-1.1-1.6-1.7-2.4l1.2-0.9c0.6-0.5,0.7-1.4,0.2-2.1c-0.5-0.6-1.4-0.7-2.1-0.2l-1.2,0.9c0,0,0,0,0,0
				c-0.6-0.7-1.3-1.5-1.9-2.2l1.1-1c0.6-0.6,0.6-1.5,0-2.1c-0.6-0.6-1.5-0.6-2.1,0l-1.1,1c-0.7-0.7-1.4-1.3-2.1-2l0,0l1-1.2
				c0.5-0.6,0.4-1.6-0.2-2.1c-0.6-0.5-1.6-0.4-2.1,0.2l-1,1.2l0,0c-0.6-0.5-1.1-0.9-1.7-1.3l0,0c-0.2-0.1-0.4-0.3-0.6-0.4l0.8-1.2
				c0.5-0.7,0.3-1.6-0.4-2c-0.7-0.5-1.6-0.3-2,0.4l-0.8,1.2c-0.8-0.5-1.6-1-2.5-1.5l0,0l0.7-1.3c0.4-0.7,0.1-1.6-0.6-2
				c-0.7-0.4-1.6-0.1-2,0.6l-0.7,1.3c0,0,0,0,0,0c-0.9-0.4-1.7-0.9-2.6-1.3l0.6-1.4c0.3-0.7,0-1.6-0.8-1.9c-0.3-0.1-0.6-0.1-0.8-0.1
				c-0.5,0.1-0.9,0.4-1.1,0.9l-0.6,1.4l0,0c-0.9-0.4-1.8-0.7-2.7-1l0.4-1.4c0.2-0.8-0.2-1.6-1-1.8c-0.8-0.2-1.6,0.2-1.8,1l-0.4,1.4
				l0,0c-0.9-0.3-1.9-0.5-2.8-0.7c0,0,0,0,0,0l0.3-1.5c0.2-0.8-0.4-1.6-1.2-1.7v0c-0.8-0.2-1.6,0.4-1.7,1.2l-0.3,1.5
				c-1-0.2-1.9-0.3-2.9-0.4l0.1-1.5c0.1-0.8-0.5-1.5-1.3-1.6c-0.8-0.1-1.5,0.5-1.6,1.3l-0.1,1.5l0,0c-1-0.1-1.9-0.1-2.9-0.1v-1.5
				c0-0.8-0.7-1.5-1.5-1.5c-0.8,0-1.5,0.7-1.5,1.5v1.5c-1,0-2,0.1-2.9,0.1l-0.1-1.5c-0.1-0.8-0.8-1.4-1.6-1.3
				c-0.8,0.1-1.4,0.8-1.3,1.6l0.1,1.5l0,0c-1,0.1-1.9,0.3-2.9,0.4l0,0l-0.3-1.5c-0.2-0.8-0.9-1.3-1.7-1.2c-0.8,0.2-1.3,0.9-1.2,1.7
				l0.3,1.5c-1,0.2-1.9,0.5-2.8,0.7l0,0l-0.4-1.4c-0.2-0.8-1.1-1.2-1.8-1c-0.8,0.2-1.2,1.1-1,1.8l0.4,1.4l0,0
				c-0.9,0.3-1.8,0.6-2.7,1l-0.6-1.4c-0.2-0.5-0.6-0.8-1.1-0.9c-0.3,0-0.5,0-0.8,0.1c-0.7,0.3-1.1,1.2-0.8,1.9l0.6,1.4
				c-0.9,0.4-1.8,0.8-2.6,1.3l-0.7-1.3c-0.4-0.7-1.3-1-2-0.6c-0.7,0.4-1,1.3-0.6,2l0.7,1.3c-0.8,0.5-1.7,1-2.5,1.5l0,0l-0.8-1.2
				c-0.5-0.7-1.4-0.8-2-0.4c-0.7,0.5-0.8,1.4-0.4,2l0.8,1.2c-0.1,0.1-0.2,0.2-0.3,0.2c-0.1,0.1-0.2,0.1-0.3,0.2l0,0
				c-0.6,0.4-1.2,0.9-1.7,1.3l-1-1.2c-0.5-0.6-1.5-0.7-2.1-0.2c-0.6,0.5-0.7,1.5-0.2,2.1l1,1.2l0,0c-0.7,0.6-1.4,1.3-2.1,2l0,0
				l-1.1-1c-0.6-0.6-1.5-0.6-2.1,0s-0.6,1.5,0,2.1l1.1,1c-0.7,0.7-1.3,1.4-1.9,2.2c0,0,0,0,0,0l-1.2-0.9c-0.6-0.5-1.6-0.4-2.1,0.2
				c-0.5,0.6-0.4,1.6,0.2,2.1l1.2,0.9c-0.6,0.8-1.2,1.6-1.7,2.4l0,0l-1.3-0.8c-0.7-0.4-1.6-0.2-2,0.4h0c-0.4,0.7-0.2,1.6,0.4,2
				l1.2,0.8l0,0c-0.5,0.8-1,1.7-1.5,2.5c0,0,0,0,0,0l-1.3-0.7c-0.7-0.4-1.6-0.1-2,0.6c-0.4,0.7-0.1,1.6,0.6,2l1.3,0.7
				c-0.4,0.9-0.8,1.8-1.2,2.7l0,0l-1.4-0.5c-0.8-0.3-1.6,0.1-1.9,0.8c-0.3,0.8,0.1,1.6,0.8,1.9l1.4,0.5c0,0,0,0,0,0
				c-0.3,0.9-0.6,1.8-0.9,2.8l-1.4-0.4c-0.8-0.2-1.6,0.2-1.8,1c-0.2,0.8,0.2,1.6,1,1.8l1.4,0.4c0,0,0,0,0,0
				c-0.2,0.9-0.5,1.9-0.6,2.8l0,0l-1.5-0.3c-0.8-0.1-1.6,0.4-1.7,1.2c-0.1,0.8,0.4,1.6,1.2,1.7l1.5,0.3c-0.1,0.7-0.2,1.4-0.3,2.2
				c0,0.2-0.1,0.5-0.1,0.7v0l-1.5-0.1c-0.8-0.1-1.5,0.6-1.6,1.4c-0.1,0.8,0.6,1.5,1.4,1.6l1.5,0.1c0,0.8-0.1,1.6-0.1,2.4
				c0,0.2,0,0.3,0,0.5l-1.5,0c-0.8,0-1.5,0.7-1.4,1.5c0,0.8,0.7,1.5,1.5,1.4l1.5,0v0c0,1,0.1,2,0.2,2.9l-1.5,0.2
				c-0.8,0.1-1.4,0.8-1.3,1.6c0,0.3,0.2,0.5,0.3,0.8c0.3,0.4,0.8,0.6,1.3,0.5l1.5-0.2c0.1,1,0.3,1.9,0.5,2.9l-1.4,0.3
				c-0.8,0.2-1.3,1-1.1,1.8c0.2,0.8,1,1.3,1.8,1.1l1.4-0.3c0.2,0.9,0.5,1.9,0.8,2.8l-1.4,0.5c-0.8,0.3-1.2,1.1-0.9,1.9
				c0.3,0.8,1.1,1.2,1.9,0.9l1.4-0.5c0.3,0.9,0.7,1.8,1.1,2.7c0,0,0,0,0,0l-1.3,0.6c-0.7,0.3-1.1,1.2-0.7,1.9
				c0.3,0.7,1.2,1.1,1.9,0.7l1.3-0.6c0.4,0.9,0.9,1.7,1.3,2.6l0,0l-1.3,0.7c-0.7,0.4-0.9,1.3-0.5,2c0.4,0.7,1.3,0.9,2,0.5l1.3-0.7
				c0.5,0.8,1,1.7,1.6,2.5l-1.2,0.9c-0.7,0.5-0.8,1.4-0.3,2.1c0.5,0.7,1.4,0.8,2.1,0.3l1.2-0.9c0.6,0.8,1.2,1.5,1.8,2.3l-1.1,1
				c-0.6,0.5-0.7,1.5-0.1,2.1c0.5,0.6,1.5,0.7,2.1,0.1l1.1-1l0,0c0.7,0.7,1.3,1.4,2,2.1l-1,1.1c-0.6,0.6-0.5,1.5,0.1,2.1
				c0.6,0.6,1.5,0.5,2.1-0.1l1-1.1l0,0c0.7,0.6,1.5,1.3,2.2,1.9l-0.9,1.2c-0.3,0.4-0.3,0.9-0.2,1.4c0.1,0.3,0.2,0.5,0.5,0.7
				c0.6,0.5,1.6,0.4,2.1-0.3l0.9-1.2c0.8,0.6,1.6,1.1,2.4,1.7l-0.8,1.3c-0.4,0.7-0.2,1.6,0.5,2c0.7,0.4,1.6,0.2,2-0.5l0.8-1.3l0,0
				c0.8,0.5,1.7,1,2.6,1.4l-0.6,1.3c-0.4,0.7,0,1.6,0.7,2c0.7,0.4,1.6,0,2-0.7l0.6-1.3c0.2,0.1,0.5,0.2,0.7,0.3
				c0.7,0.3,1.3,0.6,2,0.8l0,0l-0.5,1.4c-0.3,0.8,0.1,1.6,0.9,1.9c0.8,0.3,1.6-0.1,1.9-0.9l0.5-1.4l0,0c0.9,0.3,1.9,0.6,2.8,0.9
				c0,0,0,0,0,0l-0.4,1.4c-0.2,0.8,0.3,1.6,1.1,1.8h0c0.8,0.2,1.6-0.3,1.8-1.1l0.4-1.4c0.9,0.2,1.9,0.4,2.9,0.6l0,0l-0.2,1.5
				c-0.1,0.8,0.4,1.6,1.2,1.7c0.8,0.1,1.6-0.4,1.7-1.2l0.2-1.5c1,0.1,1.9,0.2,2.9,0.3l-0.1,1.5c0,0.8,0.6,1.5,1.4,1.5
				c0.8,0,1.5-0.6,1.5-1.4l0.1-1.5c0.5,0,1,0,1.5,0c0.5,0,1,0,1.5,0l0.1,1.5c0,0.8,0.7,1.4,1.5,1.4c0.8,0,1.4-0.7,1.4-1.5l-0.1-1.5
				l0,0c1-0.1,1.9-0.2,2.9-0.3l0,0l0.2,1.5c0.1,0.8,0.9,1.4,1.7,1.2c0.8-0.1,1.4-0.9,1.2-1.7l-0.2-1.5l0,0c1-0.2,1.9-0.4,2.9-0.6
				l0.4,1.4c0.2,0.8,1,1.3,1.8,1.1c0.8-0.2,1.3-1,1.1-1.8l-0.4-1.4l0,0c0.9-0.3,1.9-0.6,2.8-0.9l0.5,1.4c0.3,0.8,1.1,1.2,1.9,0.9
				c0.8-0.3,1.2-1.1,0.9-1.9l-0.5-1.4l0,0c0.7-0.3,1.3-0.5,2-0.8l0,0c0.1,0,0.2-0.1,0.3-0.1c0.1-0.1,0.3-0.1,0.4-0.2l0.6,1.3
				c0.4,0.7,1.2,1,2,0.7c0.7-0.4,1-1.2,0.7-2l-0.6-1.3c0.9-0.4,1.7-0.9,2.6-1.4l0.8,1.3c0.4,0.7,1.3,0.9,2,0.5
				c0.7-0.4,0.9-1.3,0.5-2L427,386l0,0c0.8-0.5,1.6-1.1,2.4-1.6c0,0,0,0,0,0l0.9,1.2c0.5,0.6,1.4,0.8,2.1,0.3
				c0.2-0.2,0.4-0.4,0.5-0.7c0.2-0.5,0.1-1-0.2-1.4l-0.9-1.2l0,0c0.8-0.6,1.5-1.2,2.2-1.9l0,0l1,1.1c0.6,0.6,1.5,0.6,2.1,0.1
				c0.6-0.6,0.6-1.5,0.1-2.1l-1-1.1c0.7-0.7,1.4-1.4,2-2.1c0,0,0,0,0,0l1.1,1c0.6,0.5,1.5,0.5,2.1-0.1c0.5-0.6,0.5-1.5-0.1-2.1
				l-1.1-1c0.6-0.7,1.2-1.5,1.8-2.3l1.2,0.9c0.7,0.5,1.6,0.3,2.1-0.3c0.5-0.7,0.3-1.6-0.3-2.1l-1.2-0.9c0.5-0.8,1.1-1.6,1.6-2.5
				l1.3,0.7c0.7,0.4,1.6,0.2,2-0.5c0.4-0.7,0.2-1.6-0.5-2l-1.3-0.7c0.5-0.9,0.9-1.7,1.3-2.6c0,0,0,0,0,0l1.3,0.6
				c0.7,0.3,1.6,0,1.9-0.7c0.3-0.7,0-1.6-0.7-1.9l-1.3-0.6c0.4-0.9,0.7-1.8,1.1-2.7l1.4,0.5c0.8,0.3,1.6-0.2,1.9-0.9
				c0.3-0.8-0.2-1.6-0.9-1.9l-1.4-0.5c0.3-0.9,0.6-1.9,0.8-2.8l0,0l1.4,0.3c0.8,0.2,1.6-0.3,1.8-1.1c0.2-0.8-0.3-1.6-1.1-1.8
				l-1.4-0.3c0.2-1,0.4-1.9,0.5-2.9l1.5,0.2c0.5,0.1,1-0.2,1.3-0.5c0.2-0.2,0.3-0.5,0.3-0.8C456.5,343.4,455.9,342.7,455.1,342.6z
				 M420.7,375.9c-6.5-8.1-10-19.5-5.3-27.6c4.7-8.2,16.3-10.9,26.6-9.3C441.2,354.5,432.9,368,420.7,375.9z M348,339
				c10.3-1.6,21.9,1.1,26.6,9.3c4.7,8.2,1.3,19.5-5.2,27.6C357.2,368,348.9,354.5,348,339z M369.3,297c6.6,8.1,10.1,19.5,5.3,27.7
				c-4.7,8.2-16.3,10.9-26.6,9.3C348.8,318.5,357.1,305,369.3,297z M442.1,334c-10.3,1.6-21.9-1.1-26.7-9.3
				c-4.7-8.2-1.3-19.6,5.3-27.7C433,305,441.3,318.5,442.1,334z M395,313c-9.5,0-17.6-8.7-21.4-18.5c6.4-3.3,13.7-5.1,21.4-5.1
				c7.7,0,14.9,1.9,21.4,5.1C412.7,304.2,404.5,313,395,313z M400.9,336.5c0,3.3-2.6,5.9-5.9,5.9c-3.3,0-5.9-2.6-5.9-5.9
				c0-3.3,2.6-5.9,5.9-5.9C398.3,330.6,400.9,333.3,400.9,336.5z M395,360.1c9.4,0,17.6,8.7,21.3,18.4c-6.4,3.3-13.6,5.1-21.3,5.1
				c-7.7,0-14.9-1.9-21.3-5.1C377.5,368.7,385.6,360.1,395,360.1z">

		<animateTransform 
           xlink:href="#cran1"
           attributeName="transform" 
           attributeType="XML"
           type="rotate"
           from="0 395.05 336.48"
           to="360 395.05 336.48" 
           dur="20s"
           begin="0s"
           repeatCount="indefinite"                  
       />
   </path>

			<path id="cran2" fill="#578C8C" d="M528.6,244.5l-1.5-0.2c0.1-1,0.2-1.9,0.2-2.9v0l1.5,0c0.8,0,1.5-0.6,1.5-1.4c0-0.8-0.6-1.5-1.4-1.5
				l-1.5,0c0-0.8,0-1.5-0.1-2.3c0-0.2,0-0.4,0-0.7l1.5-0.1c0.8-0.1,1.4-0.8,1.4-1.6c-0.1-0.8-0.8-1.4-1.6-1.4l-1.5,0.1l0,0
				c0-0.3-0.1-0.5-0.1-0.7c0-0.2-0.1-0.4-0.1-0.6c-0.1-0.5-0.1-1.1-0.2-1.6l1.5-0.3c0.8-0.1,1.3-0.9,1.2-1.7
				c-0.1-0.8-0.9-1.3-1.7-1.2l-1.5,0.3l0,0c-0.2-1-0.4-1.9-0.7-2.9l0,0l1.4-0.4c0.8-0.2,1.2-1,1-1.8c-0.2-0.8-1-1.2-1.8-1l-1.4,0.4
				c-0.3-0.9-0.6-1.9-0.9-2.8v0l1.4-0.5c0.8-0.3,1.1-1.2,0.8-1.9s-1.2-1.1-1.9-0.8l-1.4,0.5l0,0c-0.4-0.9-0.8-1.8-1.2-2.7l0,0
				l1.3-0.7c0.7-0.4,1-1.3,0.6-2c-0.4-0.7-1.3-1-2-0.6l-1.3,0.7c-0.5-0.9-1-1.7-1.5-2.5l1.3-0.8c0.7-0.4,0.9-1.4,0.4-2
				c-0.4-0.7-1.4-0.9-2-0.4l-1.3,0.8l0,0c-0.6-0.8-1.1-1.6-1.7-2.4l1.2-0.9c0.6-0.5,0.7-1.4,0.2-2.1c-0.5-0.6-1.4-0.7-2.1-0.2
				l-1.2,0.9c0,0,0,0,0,0c-0.6-0.7-1.3-1.5-1.9-2.2l1.1-1.1c0.6-0.6,0.6-1.5,0-2.1c-0.6-0.6-1.5-0.6-2.1,0l-1.1,1.1
				c-0.7-0.7-1.4-1.3-2.2-2l0,0l1-1.2c0.5-0.6,0.4-1.6-0.2-2.1c-0.6-0.5-1.6-0.4-2.1,0.2l-1,1.2l0,0c-0.6-0.5-1.1-0.9-1.7-1.3l0,0
				c-0.2-0.1-0.4-0.3-0.6-0.4l0.8-1.2c0.5-0.7,0.3-1.6-0.4-2.1c-0.7-0.5-1.6-0.3-2.1,0.4l-0.8,1.2c-0.8-0.5-1.7-1-2.5-1.5l0,0
				l0.7-1.3c0.4-0.7,0.1-1.6-0.6-2c-0.7-0.4-1.6-0.1-2,0.6l-0.7,1.3l0,0c-0.9-0.4-1.8-0.9-2.6-1.3l0.6-1.4c0.3-0.7,0-1.6-0.8-1.9
				c-0.3-0.1-0.6-0.1-0.8-0.1c-0.5,0.1-0.9,0.4-1.1,0.9l-0.6,1.4l0,0c-0.9-0.4-1.8-0.7-2.8-1l0.4-1.4c0.2-0.8-0.2-1.6-1-1.8
				c-0.8-0.2-1.6,0.2-1.8,1l-0.4,1.4l0,0c-0.9-0.3-1.9-0.5-2.8-0.7l0,0l0.3-1.5c0.2-0.8-0.4-1.6-1.2-1.7v0c-0.8-0.2-1.6,0.4-1.7,1.2
				l-0.3,1.5c-1-0.2-1.9-0.3-2.9-0.4l0.2-1.5c0.1-0.8-0.5-1.5-1.3-1.6c-0.8-0.1-1.5,0.5-1.6,1.3l-0.2,1.5l0,0
				c-1-0.1-1.9-0.1-2.9-0.1v-1.5c0-0.8-0.7-1.5-1.5-1.5c-0.8,0-1.5,0.7-1.5,1.5v1.5c-1,0-2,0.1-2.9,0.1l-0.2-1.5
				c-0.1-0.8-0.8-1.4-1.6-1.3c-0.8,0.1-1.4,0.8-1.3,1.6l0.2,1.5l0,0c-1,0.1-1.9,0.3-2.9,0.4l0,0l-0.3-1.5c-0.2-0.8-0.9-1.3-1.7-1.2
				c-0.8,0.2-1.3,0.9-1.2,1.7l0.3,1.5c-1,0.2-1.9,0.5-2.8,0.7l0,0l-0.4-1.4c-0.2-0.8-1.1-1.2-1.8-1c-0.8,0.2-1.2,1.1-1,1.8l0.4,1.4
				l0,0c-0.9,0.3-1.9,0.6-2.8,1l-0.6-1.4c-0.2-0.5-0.6-0.8-1.1-0.9c-0.3,0-0.6,0-0.8,0.1c-0.7,0.3-1.1,1.2-0.8,1.9l0.6,1.4
				c-0.9,0.4-1.8,0.8-2.6,1.3l-0.7-1.3c-0.4-0.7-1.3-1-2-0.6c-0.7,0.4-1,1.3-0.6,2l0.7,1.3c-0.8,0.5-1.7,1-2.5,1.5l0,0l-0.8-1.2
				c-0.5-0.7-1.4-0.8-2.1-0.4c-0.7,0.5-0.8,1.4-0.4,2.1l0.8,1.2c-0.1,0.1-0.2,0.2-0.3,0.2c-0.1,0.1-0.2,0.1-0.3,0.2l0,0
				c-0.6,0.4-1.2,0.9-1.7,1.3l-1-1.2c-0.5-0.6-1.5-0.7-2.1-0.2c-0.6,0.5-0.7,1.5-0.2,2.1l1,1.2l0,0c-0.7,0.6-1.5,1.3-2.2,2l0,0
				l-1.1-1.1c-0.6-0.6-1.5-0.6-2.1,0c-0.6,0.6-0.6,1.5,0,2.1l1.1,1.1c-0.7,0.7-1.3,1.4-1.9,2.2c0,0,0,0,0,0l-1.2-0.9
				c-0.6-0.5-1.6-0.4-2.1,0.2c-0.5,0.6-0.4,1.6,0.2,2.1l1.2,0.9c-0.6,0.8-1.2,1.6-1.7,2.4l0,0l-1.3-0.8c-0.7-0.4-1.6-0.2-2,0.4h0
				c-0.4,0.7-0.2,1.6,0.4,2l1.3,0.8l0,0c-0.5,0.8-1,1.7-1.5,2.5c0,0,0,0,0,0l-1.3-0.7c-0.7-0.4-1.6-0.1-2,0.6
				c-0.4,0.7-0.1,1.6,0.6,2l1.3,0.7c-0.4,0.9-0.8,1.8-1.2,2.7l0,0l-1.4-0.5c-0.8-0.3-1.6,0.1-1.9,0.8c-0.3,0.8,0.1,1.6,0.8,1.9
				l1.4,0.5c0,0,0,0,0,0c-0.3,0.9-0.6,1.8-0.9,2.8l-1.4-0.4c-0.8-0.2-1.6,0.2-1.8,1c-0.2,0.8,0.2,1.6,1,1.8l1.4,0.4c0,0,0,0,0,0
				c-0.2,0.9-0.5,1.9-0.6,2.9l0,0l-1.5-0.3c-0.8-0.1-1.6,0.4-1.7,1.2c-0.1,0.8,0.4,1.6,1.2,1.7l1.5,0.3c-0.1,0.7-0.2,1.4-0.3,2.2
				c0,0.2-0.1,0.5-0.1,0.7v0l-1.5-0.1c-0.8-0.1-1.5,0.6-1.6,1.4c-0.1,0.8,0.6,1.5,1.4,1.6l1.5,0.1c0,0.8-0.1,1.6-0.1,2.4
				c0,0.2,0,0.3,0,0.5l-1.5,0c-0.8,0-1.5,0.7-1.4,1.5c0,0.8,0.7,1.5,1.5,1.4l1.5,0v0c0,1,0.1,2,0.2,2.9l-1.5,0.2
				c-0.8,0.1-1.4,0.8-1.3,1.6c0,0.3,0.2,0.5,0.3,0.8c0.3,0.4,0.8,0.6,1.3,0.5l1.5-0.2c0.1,1,0.3,1.9,0.5,2.9l-1.5,0.3
				c-0.8,0.2-1.3,1-1.1,1.8c0.2,0.8,1,1.3,1.8,1.1l1.4-0.3c0.2,1,0.5,1.9,0.8,2.8l-1.4,0.5c-0.8,0.3-1.2,1.1-0.9,1.9
				c0.3,0.8,1.1,1.2,1.9,0.9l1.4-0.5c0.3,0.9,0.7,1.8,1.1,2.7c0,0,0,0,0,0l-1.4,0.6c-0.7,0.3-1.1,1.2-0.7,2c0.3,0.7,1.2,1.1,2,0.7
				l1.4-0.6c0.4,0.9,0.9,1.8,1.3,2.6l0,0l-1.3,0.7c-0.7,0.4-0.9,1.3-0.5,2c0.4,0.7,1.3,0.9,2,0.5l1.3-0.7c0.5,0.8,1,1.7,1.6,2.5
				l-1.2,0.9c-0.7,0.5-0.8,1.4-0.3,2.1c0.5,0.7,1.4,0.8,2.1,0.3l1.2-0.9c0.6,0.8,1.2,1.5,1.8,2.3l-1.1,1c-0.6,0.5-0.7,1.5-0.1,2.1
				c0.5,0.6,1.5,0.7,2.1,0.1l1.1-1l0,0c0.7,0.7,1.4,1.4,2.1,2.1l-1,1.1c-0.6,0.6-0.5,1.5,0.1,2.1c0.6,0.6,1.5,0.5,2.1-0.1l1-1.1l0,0
				c0.7,0.6,1.5,1.3,2.2,1.9l-0.9,1.2c-0.3,0.4-0.3,0.9-0.2,1.4c0.1,0.3,0.2,0.5,0.5,0.7c0.6,0.5,1.6,0.4,2.1-0.3l0.9-1.2
				c0.8,0.6,1.6,1.1,2.4,1.7l-0.8,1.3c-0.4,0.7-0.2,1.6,0.5,2c0.7,0.4,1.6,0.2,2-0.5l0.8-1.3l0,0c0.8,0.5,1.7,1,2.6,1.4l-0.7,1.4
				c-0.4,0.7,0,1.6,0.7,2c0.7,0.4,1.6,0,2-0.7l0.6-1.4c0.2,0.1,0.5,0.2,0.7,0.3c0.7,0.3,1.3,0.6,2,0.8l0,0l-0.5,1.4
				c-0.3,0.8,0.1,1.6,0.9,1.9c0.8,0.3,1.6-0.1,1.9-0.9l0.5-1.4l0,0c0.9,0.3,1.9,0.6,2.8,0.9l0,0l-0.4,1.5c-0.2,0.8,0.3,1.6,1.1,1.8
				h0c0.8,0.2,1.6-0.3,1.8-1.1l0.4-1.5c1,0.2,1.9,0.4,2.9,0.6l0,0l-0.2,1.5c-0.1,0.8,0.4,1.6,1.2,1.7c0.8,0.1,1.6-0.4,1.7-1.2
				l0.2-1.5c1,0.1,1.9,0.2,2.9,0.3l-0.1,1.5c0,0.8,0.6,1.5,1.4,1.5c0.8,0,1.5-0.6,1.5-1.4l0.1-1.5c0.5,0,1,0,1.5,0c0.5,0,1,0,1.5,0
				l0.1,1.5c0,0.8,0.7,1.4,1.5,1.4c0.8,0,1.4-0.7,1.4-1.5l-0.1-1.5l0,0c1-0.1,2-0.2,2.9-0.3l0,0l0.2,1.5c0.1,0.8,0.9,1.4,1.7,1.2
				c0.8-0.1,1.4-0.9,1.2-1.7l-0.2-1.5l0,0c1-0.2,1.9-0.4,2.9-0.6l0.4,1.5c0.2,0.8,1,1.3,1.8,1.1c0.8-0.2,1.3-1,1.1-1.8l-0.4-1.5l0,0
				c0.9-0.3,1.9-0.6,2.8-0.9l0.5,1.4c0.3,0.8,1.1,1.2,1.9,0.9c0.8-0.3,1.2-1.1,0.9-1.9l-0.5-1.4l0,0c0.7-0.3,1.4-0.5,2-0.8l0,0
				c0.1,0,0.2-0.1,0.3-0.1c0.1-0.1,0.3-0.1,0.4-0.2l0.7,1.4c0.4,0.7,1.2,1,2,0.7c0.7-0.4,1-1.2,0.7-2l-0.7-1.4
				c0.9-0.4,1.7-0.9,2.6-1.4l0.8,1.3c0.4,0.7,1.3,0.9,2,0.5c0.7-0.4,0.9-1.3,0.5-2l-0.8-1.3l0,0c0.8-0.5,1.6-1.1,2.4-1.7l0,0
				l0.9,1.2c0.5,0.6,1.4,0.8,2.1,0.3c0.2-0.2,0.4-0.4,0.5-0.7c0.2-0.5,0.1-1-0.2-1.4l-0.9-1.2l0,0c0.8-0.6,1.5-1.2,2.2-1.9l0,0
				l1,1.1c0.6,0.6,1.5,0.6,2.1,0.1c0.6-0.6,0.6-1.5,0.1-2.1l-1-1.1c0.7-0.7,1.4-1.4,2.1-2.1l0,0l1.1,1c0.6,0.5,1.5,0.5,2.1-0.1
				c0.5-0.6,0.5-1.5-0.1-2.1l-1.1-1c0.6-0.7,1.2-1.5,1.8-2.3l1.2,0.9c0.7,0.5,1.6,0.3,2.1-0.3c0.5-0.7,0.3-1.6-0.3-2.1l-1.2-0.9
				c0.6-0.8,1.1-1.6,1.6-2.5l1.3,0.7c0.7,0.4,1.6,0.2,2-0.5c0.4-0.7,0.2-1.6-0.5-2l-1.3-0.7c0.5-0.9,0.9-1.7,1.3-2.6c0,0,0,0,0,0
				l1.4,0.6c0.7,0.3,1.6,0,2-0.7c0.3-0.7,0-1.6-0.7-2l-1.3-0.6c0.4-0.9,0.7-1.8,1.1-2.7l1.4,0.5c0.8,0.3,1.6-0.2,1.9-0.9
				c0.3-0.8-0.2-1.6-0.9-1.9l-1.4-0.5c0.3-0.9,0.6-1.9,0.8-2.8l0,0l1.4,0.3c0.8,0.2,1.6-0.3,1.8-1.1c0.2-0.8-0.3-1.6-1.1-1.8
				l-1.5-0.3c0.2-1,0.4-1.9,0.5-2.9l1.5,0.2c0.5,0.1,1-0.2,1.3-0.5c0.2-0.2,0.3-0.5,0.3-0.8C530,245.4,529.4,244.6,528.6,244.5z
				 M494.1,278c-6.6-8.1-10-19.5-5.3-27.8c4.7-8.2,16.4-10.9,26.7-9.3C514.7,256.5,506.4,270,494.1,278z M421.2,241
				c10.3-1.6,22,1.1,26.7,9.3c4.7,8.2,1.3,19.6-5.3,27.7C430.4,270,422.1,256.5,421.2,241z M442.6,198.8c6.6,8.1,10.1,19.6,5.3,27.8
				c-4.7,8.2-16.4,10.9-26.7,9.3C422,220.4,430.3,206.8,442.6,198.8z M515.6,235.9c-10.3,1.6-22-1.1-26.7-9.3
				c-4.8-8.2-1.3-19.7,5.4-27.8C506.5,206.8,514.8,220.4,515.6,235.9z M468.4,214.8c-9.5,0-17.7-8.8-21.4-18.5
				c6.4-3.3,13.7-5.2,21.5-5.2c7.7,0,15,1.9,21.4,5.1C486.1,206.1,477.9,214.8,468.4,214.8z M474.3,238.4c0,3.3-2.6,5.9-5.9,5.9
				c-3.3,0-5.9-2.6-5.9-5.9c0-3.3,2.6-5.9,5.9-5.9C471.6,232.5,474.3,235.2,474.3,238.4z M468.4,262.1c9.5,0,17.6,8.7,21.4,18.4
				c-6.4,3.3-13.7,5.1-21.4,5.1c-7.7,0-15-1.9-21.4-5.1C450.8,270.8,458.9,262.1,468.4,262.1z">

		<animateTransform 
           xlink:href="#cran2"
           attributeName="transform" 
           attributeType="XML"
           type="rotate"
           from="360 395.05 336.48"
           to="0 395.05 336.48" 
           dur="20s"
           begin="0s"
           repeatCount="indefinite"                  
       />
			</path>

<path id="cran3" fill="#366B81" d="M397.4,141.2l-2.8-0.4c0.2-1.9,0.3-3.7,0.4-5.6l2.9,0.1c1.6,0,2.9-1.2,2.9-2.8
	c0-1.6-1.2-2.9-2.8-2.9l-2.9-0.1c0-1.9-0.1-3.8-0.1-5.6l2.9-0.2c1.6-0.1,2.7-1.5,2.6-3c-0.1-1.6-1.5-2.7-3-2.6l-2.9,0.2
	c-0.2-1.9-0.4-3.7-0.7-5.6l2.8-0.5c1.5-0.3,2.6-1.7,2.3-3.3c-0.3-1.5-1.7-2.6-3.3-2.3l-2.8,0.5c-0.4-1.9-0.8-3.7-1.2-5.5l2.7-0.8
	c1.5-0.4,2.4-2,2-3.5c-0.4-1.5-2-2.4-3.5-2l-2.7,0.8c-0.6-1.8-1.2-3.6-1.8-5.3l2.6-1c1.5-0.6,2.2-2.2,1.6-3.7s-2.2-2.2-3.7-1.6
	l-2.6,1c-0.7-1.7-1.5-3.5-2.3-5.1l2.5-1.3c1.4-0.7,1.9-2.4,1.2-3.8c-0.7-1.4-2.4-1.9-3.8-1.2l-2.5,1.3c-0.9-1.7-1.8-3.3-2.8-4.9
	l2.4-1.6c1.3-0.8,1.7-2.6,0.8-3.9c-0.8-1.3-2.6-1.7-3.9-0.8l-2.4,1.6c-1.1-1.6-2.2-3.1-3.3-4.6l2.3-1.8c1.2-1,1.4-2.8,0.4-4h0
	c-1-1.2-2.8-1.4-4-0.4l-2.3,1.8c-1.2-1.4-2.5-2.8-3.7-4.2l2.1-2c1.1-1.1,1.1-2.9,0.1-4c-1.1-1.1-2.9-1.1-4-0.1l-2.1,2
	c-1.3-1.3-2.7-2.6-4.1-3.8l1.9-2.2c1-1.2,0.8-3-0.3-4c-1.2-1-3-0.8-4,0.3l-1.9,2.2c-1.5-1.2-3-2.3-4.5-3.4l1.6-2.4
	c0.9-1.3,0.5-3.1-0.7-3.9c-1.3-0.9-3.1-0.5-3.9,0.7l-1.6,2.4c-1.6-1-3.2-2-4.8-2.9l1.4-2.5c0.7-1.4,0.2-3.1-1.1-3.8
	c-1.4-0.7-3.1-0.2-3.8,1.1l-1.4,2.5c-1.7-0.9-3.4-1.7-5.1-2.4l1.1-2.7c0.6-1.4-0.1-3.1-1.5-3.7c-1.4-0.6-3.1,0.1-3.7,1.5l-1.1,2.6
	c-1.7-0.7-3.5-1.3-5.3-1.9l0.8-2.7c0.5-1.5-0.4-3.1-1.9-3.5c-1.5-0.5-3.1,0.4-3.5,1.9l-0.8,2.7c-1.8-0.5-3.6-1-5.5-1.4l0.6-2.8
	c0.3-1.5-0.7-3-2.2-3.3c-1.5-0.3-3,0.7-3.3,2.2l-0.6,2.8c-1.8-0.3-3.7-0.6-5.6-0.8l0.3-2.9c0.2-1.6-1-2.9-2.5-3.1
	c-1.6-0.2-2.9,1-3.1,2.5l-0.3,2.9c-1.9-0.1-3.7-0.2-5.6-0.3v-2.9c0-1.6-1.3-2.8-2.8-2.8c-1.6,0-2.8,1.3-2.8,2.8v2.9
	c-1.9,0-3.8,0.1-5.6,0.3l-0.3-2.9c-0.2-1.6-1.6-2.7-3.1-2.5c-1.6,0.2-2.7,1.6-2.5,3.1l0.3,2.9c-1.9,0.2-3.7,0.5-5.6,0.8l-0.6-2.8
	c-0.3-1.5-1.8-2.5-3.3-2.2c-1.5,0.3-2.5,1.8-2.2,3.3l0.6,2.8c-1.8,0.4-3.7,0.9-5.5,1.4l-0.8-2.7c-0.5-1.5-2.1-2.3-3.5-1.9
	c-1.5,0.5-2.3,2.1-1.9,3.5l0.8,2.7c-1.8,0.6-3.6,1.2-5.3,1.9l-1.1-2.6c-0.6-1.4-2.3-2.1-3.7-1.5c-1.4,0.6-2.1,2.3-1.5,3.7l1.1,2.7
	c-1.7,0.8-3.4,1.6-5.1,2.4l-1.4-2.5c-0.7-1.4-2.5-1.9-3.8-1.1c-1.4,0.7-1.9,2.5-1.1,3.8l1.4,2.5c-1.6,0.9-3.2,1.9-4.8,2.9l-1.6-2.4
	c-0.9-1.3-2.7-1.6-3.9-0.7c-1.3,0.9-1.6,2.7-0.7,3.9l1.6,2.4c-1.5,1.1-3,2.2-4.5,3.4l-1.9-2.2c-1-1.2-2.8-1.4-4-0.3
	c-1.2,1-1.4,2.8-0.3,4l1.9,2.2c-1.4,1.2-2.8,2.5-4.1,3.8l-2.1-2c-1.1-1.1-2.9-1.1-4,0c-1.1,1.1-1.1,2.9,0.1,4l2.1,2
	c-1.3,1.4-2.5,2.8-3.7,4.2l-2.3-1.8c-1.2-1-3-0.8-4,0.4c-1,1.2-0.8,3,0.4,4l2.3,1.8c-1.1,1.5-2.2,3-3.3,4.6l-2.4-1.6
	c-1.3-0.8-3.1-0.5-3.9,0.8c-0.8,1.3-0.5,3.1,0.8,3.9l2.4,1.6c-1,1.6-1.9,3.2-2.8,4.9l-2.5-1.3c-1.4-0.7-3.1-0.2-3.8,1.2
	c-0.7,1.4-0.2,3.1,1.2,3.8l2.5,1.3c-0.8,1.7-1.6,3.4-2.3,5.1l-2.6-1c-1.5-0.6-3.1,0.2-3.7,1.6s0.2,3.1,1.6,3.7l2.6,1
	c-0.6,1.8-1.2,3.5-1.8,5.3l-2.7-0.8c-1.5-0.4-3.1,0.5-3.5,2c-0.4,1.5,0.5,3.1,2,3.5l2.7,0.8c-0.5,1.8-0.9,3.6-1.2,5.5l-2.8-0.5
	c-1.5-0.3-3,0.8-3.3,2.3c-0.3,1.5,0.8,3,2.3,3.3l2.8,0.5c-0.3,1.9-0.5,3.7-0.7,5.6l-2.9-0.2c-1.6-0.1-2.9,1.1-3,2.6
	c-0.1,1.6,1.1,2.9,2.6,3l2.9,0.2c-0.1,1.9-0.1,3.7-0.1,5.6l-2.9,0.1c-1.6,0-2.8,1.3-2.8,2.9c0,1.6,1.3,2.8,2.9,2.8l2.9-0.1
	c0.1,1.9,0.2,3.8,0.4,5.6l-2.8,0.4c-1.5,0.2-2.7,1.6-2.5,3.2c0.2,1.5,1.6,2.7,3.2,2.5l2.8-0.4c0.3,1.9,0.6,3.7,1,5.6l-2.8,0.6
	c-1.5,0.3-2.5,1.9-2.1,3.4c0.3,1.5,1.9,2.5,3.4,2.1l2.8-0.6c0.5,1.8,1,3.6,1.5,5.4l-2.7,0.9c-1.5,0.5-2.3,2.1-1.8,3.6
	c0.5,1.5,2.1,2.3,3.6,1.8l2.7-0.9c0.6,1.8,1.3,3.5,2.1,5.3l-2.6,1.2c-1.4,0.6-2.1,2.3-1.4,3.8c0.6,1.4,2.3,2.1,3.7,1.4l2.6-1.2
	c0.8,1.7,1.7,3.4,2.6,5l-2.5,1.4c-1.3,0.8-1.8,2.5-1,3.9c0.8,1.4,2.5,1.8,3.9,1l2.5-1.4c1,1.6,2,3.2,3.1,4.7l-2.3,1.7
	c-1.3,0.9-1.6,2.7-0.6,4h0c0.9,1.3,2.7,1.6,4,0.6l2.3-1.7c1.1,1.5,2.3,3,3.5,4.4l-2.2,1.9c-1.2,1-1.3,2.8-0.2,4c1,1.2,2.8,1.3,4,0.2
	l2.2-1.9c1.3,1.4,2.6,2.7,3.9,4l-2,2.1c-1.1,1.1-1,2.9,0.1,4c1.1,1.1,2.9,1,4-0.1l2-2.1c1.4,1.2,2.8,2.5,4.3,3.6l-1.7,2.3
	c-0.9,1.2-0.7,3,0.5,4c1.2,0.9,3,0.7,4-0.5l1.7-2.3c1.5,1.1,3.1,2.2,4.7,3.2l-1.5,2.5c-0.8,1.3-0.4,3.1,0.9,3.9
	c1.3,0.8,3.1,0.4,3.9-0.9l1.5-2.5c1.6,0.9,3.3,1.8,4.9,2.7l-1.2,2.6c-0.7,1.4-0.1,3.1,1.3,3.8c1.4,0.7,3.1,0.1,3.8-1.3l1.2-2.6
	c1.7,0.8,3.4,1.5,5.2,2.2l-1,2.7c-0.5,1.5,0.2,3.1,1.7,3.6c1.5,0.5,3.1-0.2,3.6-1.7l1-2.7c1.8,0.6,3.6,1.2,5.4,1.7l-0.7,2.8
	c-0.4,1.5,0.5,3.1,2,3.4c1.5,0.4,3.1-0.5,3.4-2l0.7-2.8c1.8,0.4,3.7,0.8,5.5,1.1l-0.4,2.9c-0.2,1.5,0.8,3,2.4,3.2
	c1.5,0.2,3-0.8,3.2-2.4l0.4-2.9c1.9,0.2,3.7,0.4,5.6,0.6l-0.1,2.9c-0.1,1.6,1.1,2.9,2.7,3h0c1.6,0.1,2.9-1.1,3-2.7l0.1-2.9
	c0.9,0,1.9,0.1,2.8,0.1c0.9,0,1.9,0,2.8-0.1l0.1,2.9c0.1,1.6,1.4,2.8,3,2.7c1.6-0.1,2.8-1.4,2.7-3l-0.1-2.9c1.9-0.1,3.8-0.3,5.6-0.6
	l0.4,2.9c0.2,1.5,1.7,2.6,3.2,2.4c1.5-0.2,2.6-1.7,2.4-3.2l-0.4-2.9c1.9-0.3,3.7-0.7,5.5-1.1l0.7,2.8c0.4,1.5,1.9,2.4,3.4,2
	c1.5-0.4,2.4-1.9,2-3.4l-0.7-2.8c1.8-0.5,3.6-1.1,5.4-1.7l1,2.7c0.5,1.5,2.2,2.2,3.6,1.7c1.5-0.5,2.2-2.2,1.7-3.6l-1-2.7
	c1.8-0.7,3.5-1.4,5.2-2.2l1.2,2.6c0.7,1.4,2.4,2,3.8,1.3c1.4-0.7,2-2.4,1.3-3.8l-1.2-2.6c1.7-0.9,3.3-1.8,4.9-2.7l1.5,2.5
	c0.8,1.3,2.6,1.8,3.9,0.9c1.3-0.8,1.8-2.6,0.9-3.9l-1.5-2.5c1.6-1,3.1-2.1,4.7-3.2l1.7,2.3c0.9,1.2,2.7,1.5,4,0.5
	c1.2-0.9,1.5-2.7,0.5-4l-1.7-2.3c1.5-1.2,2.9-2.4,4.3-3.6l2,2.1c1.1,1.1,2.9,1.2,4,0.1c1.1-1.1,1.2-2.9,0.1-4l-2-2.1
	c1.3-1.3,2.7-2.7,3.9-4l2.2,1.9c1.2,1,3,0.9,4-0.2c1-1.2,0.9-3-0.2-4l-2.2-1.9c1.2-1.4,2.4-2.9,3.5-4.4l2.3,1.7c1.3,0.9,3,0.6,4-0.6
	c0.9-1.3,0.6-3-0.6-4l-2.3-1.7c1.1-1.6,2.1-3.1,3.1-4.7l2.5,1.4c1.4,0.8,3.1,0.3,3.9-1c0.8-1.4,0.3-3.1-1-3.9l-2.5-1.4
	c0.9-1.6,1.8-3.3,2.6-5l2.6,1.2c1.4,0.6,3.1,0,3.7-1.4c0.6-1.4,0-3.1-1.4-3.8l-2.6-1.2c0.7-1.7,1.4-3.5,2.1-5.3l2.7,0.9
	c1.5,0.5,3.1-0.3,3.6-1.8c0.5-1.5-0.3-3.1-1.8-3.6l-2.7-0.9c0.6-1.8,1.1-3.6,1.5-5.4l2.8,0.6c1.5,0.3,3-0.6,3.4-2.1
	c0.3-1.5-0.6-3-2.1-3.4l-2.8-0.6c0.4-1.8,0.7-3.7,1-5.6l2.8,0.4c1.5,0.2,3-0.9,3.2-2.5C400,142.9,398.9,141.4,397.4,141.2z
	 M372.4,129.6c0,14.6-3.4,28.3-9.5,40.5c-12.1-4.7-21.3-11.3-27.3-19.7c-2-2.8-3.6-5.7-5.1-8.5c-3.5-6.3-7.1-12.9-15-17.3
	c-7.1-4-15.7-5.2-25.6-3.6c5.5-4.9,11.2-7.8,17.1-8.5c7.1-0.8,12.4,1.7,18.6,4.6c3.1,1.4,6.3,2.9,9.9,4.2
	c10.8,3.6,23.1,3.7,36.6,0.2C372.3,124.2,372.4,126.9,372.4,129.6z M371.2,114.7c-12.6,3.3-23.8,3.4-33.6,0.1
	c-3.3-1.1-6.3-2.5-9.2-3.9c-6.6-3.1-13.3-6.3-22.3-5.2c-8.1,0.9-15.8,5-22.9,12.1c1.5-7.1,4.5-12.8,8.8-16.8
	c5.2-4.8,11.1-6,17.8-7.2c3.3-0.6,6.8-1.3,10.5-2.5c10.9-3.4,20.9-10.6,29.8-21.3C360.9,82.3,368.4,97.7,371.2,114.7z M287.4,129.6
	c0,3.1-2.5,5.7-5.7,5.7c-3.1,0-5.7-2.5-5.7-5.7c0-3.1,2.5-5.7,5.7-5.7C284.9,123.9,287.4,126.5,287.4,129.6z M345.3,65
	c-8.2,10.1-17.3,16.7-27.1,19.8c-3.3,1-6.5,1.7-9.7,2.3c-7.1,1.4-14.5,2.8-21.1,8.9c-6,5.5-9.8,13.4-11.4,23.3
	c-3-6.7-3.9-13-2.8-18.8c1.4-7,5.4-11.3,10.1-16.3c2.3-2.5,4.7-5.1,7-8.1c6.8-9.2,10.6-20.9,11.6-34.8C318.6,45,333.6,53.4,345.3,65
	z M281.7,38.9c4.6,0,9.1,0.3,13.5,1c-0.7,13-4.1,23.7-10.3,32c-2,2.8-4.3,5.2-6.5,7.5c-4.9,5.3-10.1,10.7-11.8,19.6
	c-1.6,8-0.1,16.5,4.4,25.5c-6.3-3.7-10.8-8.2-13.3-13.6c-3-6.5-2.2-12.4-1.4-19.2c0.4-3.4,0.9-6.9,0.9-10.7
	c0.1-11.5-3.7-23.2-11.1-35C257,41.5,269.1,38.9,281.7,38.9z M239.9,49.1c7.1,10.9,10.6,21.6,10.5,32c0,3.4-0.4,6.7-0.8,9.9
	c-0.9,7.2-1.8,14.6,2,22.8c3.4,7.4,9.7,13.4,18.6,18c-7.3,0.8-13.6-0.3-18.8-3.2c-6.2-3.5-9.1-8.7-12.4-14.7c-1.6-3-3.3-6.1-5.6-9.2
	c-6.7-9.3-16.6-16.6-29.6-21.7C212.5,68.7,225,56.9,239.9,49.1z M200.6,89.1c12.1,4.7,21.3,11.3,27.3,19.7c2,2.8,3.6,5.7,5.1,8.5
	c3.5,6.3,7.1,12.9,15,17.3c5.1,2.9,11,4.3,17.7,4.3c2.5,0,5.2-0.2,7.9-0.7c-5.4,4.9-11.1,7.7-17,8.4c-7.1,0.8-12.4-1.7-18.6-4.6
	c-3.1-1.4-6.3-2.9-9.9-4.2c-10.9-3.6-23.1-3.7-36.7-0.2c-0.2-2.7-0.4-5.4-0.4-8.1C191,115,194.5,101.3,200.6,89.1z M192.3,144.6
	c12.6-3.3,23.9-3.4,33.7-0.1c3.3,1.1,6.3,2.5,9.2,3.9c5.7,2.7,11.5,5.4,18.8,5.4c1.1,0,2.3-0.1,3.5-0.2c8.1-1,15.8-5,22.9-12.1
	c-1.5,7.1-4.5,12.8-8.8,16.8c-5.2,4.8-11.1,6-17.8,7.2c-3.3,0.6-6.8,1.3-10.5,2.5c-10.9,3.5-20.9,10.6-29.8,21.4
	C202.6,176.9,195.1,161.5,192.3,144.6z M218.2,194.3c8.2-10.1,17.3-16.8,27.2-19.9c3.3-1,6.5-1.7,9.7-2.3c7.1-1.4,14.5-2.8,21.1-8.9
	c6-5.5,9.8-13.4,11.4-23.3c3,6.7,3.9,13,2.8,18.8c-1.4,7-5.4,11.3-10.1,16.3c-2.3,2.5-4.7,5.1-7,8.1c-6.8,9.2-10.6,20.9-11.5,34.8
	C244.9,214.3,230,205.9,218.2,194.3z M281.7,220.3c-4.5,0-9-0.3-13.4-1c0.7-13,4.1-23.7,10.3-32.1c2-2.8,4.3-5.2,6.5-7.5
	c4.9-5.3,10.1-10.7,11.8-19.6c1.6-8,0.1-16.6-4.5-25.5c6.4,3.7,10.8,8.2,13.3,13.6c3,6.5,2.2,12.4,1.4,19.2
	c-0.4,3.4-0.9,6.9-0.9,10.7c-0.1,11.4,3.6,23.2,11.1,35C306.5,217.7,294.4,220.3,281.7,220.3z M323.6,210.1
	c-7-10.9-10.6-21.6-10.5-32c0-3.4,0.4-6.7,0.8-9.9c0.9-7.2,1.8-14.6-2-22.8c-3.4-7.4-9.7-13.4-18.6-18c7.3-0.8,13.6,0.3,18.8,3.2
	c6.2,3.5,9.1,8.7,12.4,14.7c1.6,3,3.3,6.1,5.6,9.2c6.7,9.3,16.5,16.6,29.5,21.7C351,190.5,338.5,202.3,323.6,210.1z">

  <animateTransform 
           xlink:href="#cran3"
           attributeName="transform" 
           attributeType="XML"
           type="rotate"
           from="360 282 130.50"
           to="0 282 130.50" 
           dur="140s"
           begin="0s"
           repeatCount="indefinite"                  
       />

       </path>


		<path id="cran4" fill="#366B81" d="M306.6,467.4l-2.8-0.4c0.2-1.9,0.3-3.7,0.4-5.6l2.9,0.1c1.6,0,2.9-1.2,2.9-2.8c0-1.6-1.2-2.9-2.8-2.9
			l-2.9-0.1c0-1.9-0.1-3.8-0.1-5.6l2.9-0.2c1.6-0.1,2.7-1.5,2.6-3c-0.1-1.6-1.5-2.7-3-2.6l-2.9,0.2c-0.2-1.9-0.4-3.7-0.7-5.6
			l2.8-0.5c1.5-0.3,2.6-1.7,2.3-3.3h0c-0.3-1.5-1.7-2.6-3.3-2.3l-2.8,0.5c-0.4-1.9-0.8-3.7-1.2-5.5l2.7-0.8c1.5-0.4,2.4-2,2-3.5
			s-2-2.4-3.5-2l-2.7,0.8c-0.6-1.8-1.2-3.6-1.8-5.3l2.6-1c1.5-0.6,2.2-2.2,1.6-3.7s-2.2-2.2-3.7-1.6l-2.6,1
			c-0.7-1.7-1.5-3.5-2.3-5.1l2.5-1.3c1.4-0.7,1.9-2.4,1.2-3.8c-0.7-1.4-2.4-1.9-3.8-1.2l-2.5,1.3c-0.9-1.7-1.8-3.3-2.8-4.9l2.4-1.6
			c1.3-0.8,1.7-2.6,0.8-3.9c-0.8-1.3-2.6-1.7-3.9-0.8l-2.4,1.6c-1.1-1.6-2.2-3.1-3.3-4.6l2.3-1.8c1.2-1,1.4-2.8,0.4-4
			c-1-1.2-2.8-1.4-4-0.4l-2.3,1.8c-1.2-1.4-2.5-2.8-3.7-4.2l2.1-2c1.1-1.1,1.1-2.9,0.1-4c-1.1-1.1-2.9-1.1-4,0l-2.1,2
			c-1.3-1.3-2.7-2.6-4.1-3.8l1.9-2.2c1-1.2,0.8-3-0.3-4c-1.2-1-3-0.8-4,0.3l-1.9,2.2c-1.5-1.2-3-2.3-4.5-3.4l1.6-2.4
			c0.9-1.3,0.5-3.1-0.7-3.9c-1.3-0.9-3.1-0.5-3.9,0.7l-1.6,2.4c-1.6-1-3.2-2-4.8-2.9l1.4-2.5c0.7-1.4,0.2-3.1-1.1-3.8v0
			c-1.4-0.7-3.1-0.2-3.8,1.1l-1.4,2.5c-1.7-0.9-3.4-1.7-5.1-2.4l1.1-2.7c0.6-1.4-0.1-3.1-1.5-3.7c-1.4-0.6-3.1,0.1-3.7,1.5l-1.1,2.6
			c-1.7-0.7-3.5-1.3-5.3-1.9l0.8-2.7c0.5-1.5-0.4-3.1-1.9-3.5c-1.5-0.5-3.1,0.4-3.5,1.9l-0.8,2.7c-1.8-0.5-3.6-1-5.5-1.4l0.6-2.8
			c0.3-1.5-0.7-3-2.2-3.3c-1.5-0.3-3,0.7-3.3,2.2l-0.6,2.8c-1.8-0.3-3.7-0.6-5.6-0.8l0.3-2.9c0.2-1.6-1-2.9-2.5-3.1
			c-1.6-0.2-2.9,1-3.1,2.5l-0.3,2.9c-1.9-0.1-3.7-0.2-5.6-0.3v-2.9c0-1.6-1.3-2.8-2.8-2.8c-1.6,0-2.8,1.3-2.8,2.8v2.9
			c-1.9,0-3.8,0.1-5.6,0.3l-0.3-2.9c-0.2-1.6-1.6-2.7-3.1-2.5c-1.6,0.2-2.7,1.6-2.5,3.1l0.3,2.9c-1.9,0.2-3.7,0.5-5.6,0.8l-0.6-2.8
			c-0.3-1.5-1.8-2.5-3.3-2.2c-1.5,0.3-2.5,1.8-2.2,3.3l0.6,2.8c-1.8,0.4-3.7,0.9-5.5,1.4l-0.8-2.7c-0.5-1.5-2.1-2.3-3.5-1.9
			c-1.5,0.5-2.3,2.1-1.9,3.5l0.8,2.7c-1.8,0.6-3.6,1.2-5.3,1.9l-1.1-2.6c-0.6-1.4-2.3-2.1-3.7-1.5c-1.4,0.6-2.1,2.3-1.5,3.7l1.1,2.7
			c-1.7,0.8-3.4,1.6-5.1,2.4l-1.4-2.5c-0.7-1.4-2.5-1.9-3.8-1.1c-1.4,0.7-1.9,2.5-1.1,3.8l1.4,2.5c-1.6,0.9-3.2,1.9-4.8,2.9
			l-1.6-2.4c-0.9-1.3-2.7-1.6-3.9-0.7c-1.3,0.9-1.6,2.7-0.7,3.9l1.6,2.4c-1.5,1.1-3,2.2-4.5,3.4l-1.9-2.2c-1-1.2-2.8-1.4-4-0.3
			c-1.2,1-1.4,2.8-0.3,4l1.9,2.2c-1.4,1.2-2.8,2.5-4.1,3.8l-2.1-2c-1.1-1.1-2.9-1.1-4,0c-1.1,1.1-1.1,2.9,0.1,4l2.1,2
			c-1.3,1.4-2.5,2.8-3.7,4.2l-2.3-1.8c-1.2-1-3-0.8-4,0.4c-1,1.2-0.8,3,0.4,4l2.3,1.8c-1.1,1.5-2.2,3-3.3,4.6l-2.4-1.6
			c-1.3-0.8-3.1-0.5-3.9,0.8c-0.8,1.3-0.5,3.1,0.8,3.9l2.4,1.6c-1,1.6-1.9,3.2-2.8,4.9l-2.5-1.3c-1.4-0.7-3.1-0.2-3.8,1.2
			c-0.7,1.4-0.2,3.1,1.2,3.8l2.5,1.3c-0.8,1.7-1.6,3.4-2.3,5.1l-2.6-1c-1.5-0.6-3.1,0.2-3.7,1.6s0.2,3.1,1.6,3.7l2.6,1
			c-0.6,1.8-1.2,3.5-1.8,5.3l-2.7-0.8c-1.5-0.4-3.1,0.5-3.5,2c-0.4,1.5,0.5,3.1,2,3.5l2.7,0.8c-0.5,1.8-0.9,3.6-1.2,5.5l-2.8-0.5
			c-1.5-0.3-3,0.8-3.3,2.3c-0.3,1.5,0.8,3,2.3,3.3l2.8,0.5c-0.3,1.9-0.5,3.7-0.7,5.6l-2.9-0.2c-1.6-0.1-2.9,1.1-3,2.6
			c-0.1,1.6,1.1,2.9,2.6,3l2.9,0.2c-0.1,1.9-0.1,3.7-0.1,5.6l-2.9,0.1c-1.6,0-2.8,1.3-2.8,2.9s1.3,2.8,2.9,2.8l2.9-0.1
			c0.1,1.9,0.2,3.8,0.4,5.6l-2.8,0.4c-1.5,0.2-2.7,1.6-2.5,3.2h0c0.2,1.5,1.6,2.7,3.2,2.5l2.8-0.4c0.3,1.9,0.6,3.7,1,5.6l-2.8,0.6
			c-1.5,0.3-2.5,1.9-2.1,3.4c0.3,1.5,1.9,2.5,3.4,2.1l2.8-0.6c0.5,1.8,1,3.6,1.5,5.4l-2.7,0.9c-1.5,0.5-2.3,2.1-1.8,3.6
			c0.5,1.5,2.1,2.3,3.6,1.8l2.7-0.9c0.6,1.8,1.3,3.5,2.1,5.3l-2.6,1.2c-1.4,0.6-2.1,2.3-1.4,3.8c0.6,1.4,2.3,2.1,3.7,1.4l2.6-1.2
			c0.8,1.7,1.7,3.4,2.6,5l-2.5,1.4c-1.3,0.8-1.8,2.5-1,3.9c0.8,1.4,2.5,1.8,3.9,1l2.5-1.4c1,1.6,2,3.2,3.1,4.7l-2.3,1.7
			c-1.3,0.9-1.6,2.7-0.6,4c0.9,1.3,2.7,1.6,4,0.6l2.3-1.7c1.1,1.5,2.3,3,3.5,4.4l-2.2,1.9c-1.2,1-1.3,2.8-0.2,4c1,1.2,2.8,1.3,4,0.2
			l2.2-1.9c1.3,1.4,2.6,2.7,3.9,4l-2,2.1c-1.1,1.1-1,2.9,0.1,4c1.1,1.1,2.9,1,4-0.1l2-2.1c1.4,1.2,2.8,2.5,4.3,3.6l-1.7,2.3
			c-0.9,1.2-0.7,3,0.5,4c1.2,0.9,3,0.7,4-0.5l1.7-2.3c1.5,1.1,3.1,2.2,4.7,3.2l-1.5,2.5c-0.8,1.3-0.4,3.1,0.9,3.9
			c1.3,0.8,3.1,0.4,3.9-0.9l1.5-2.5c1.6,0.9,3.3,1.8,4.9,2.7l-1.2,2.6c-0.7,1.4-0.1,3.1,1.3,3.8c1.4,0.7,3.1,0.1,3.8-1.3l1.2-2.6
			c1.7,0.8,3.4,1.5,5.2,2.2l-1,2.7c-0.5,1.5,0.2,3.1,1.7,3.6c1.5,0.5,3.1-0.2,3.6-1.7l1-2.7c1.8,0.6,3.6,1.2,5.4,1.7l-0.7,2.8
			c-0.4,1.5,0.5,3.1,2,3.4c1.5,0.4,3.1-0.5,3.4-2l0.7-2.8c1.8,0.4,3.7,0.8,5.5,1.1l-0.4,2.9c-0.2,1.5,0.8,3,2.4,3.2
			c1.5,0.2,3-0.8,3.2-2.4l0.4-2.9c1.9,0.2,3.7,0.4,5.6,0.6l-0.1,2.9c-0.1,1.6,1.1,2.9,2.7,3c1.6,0.1,2.9-1.1,3-2.7l0.1-2.9
			c0.9,0,1.9,0.1,2.8,0.1c0.9,0,1.9,0,2.8-0.1l0.1,2.9c0.1,1.6,1.4,2.8,3,2.7c1.6-0.1,2.8-1.4,2.7-3l-0.1-2.9
			c1.9-0.1,3.8-0.3,5.6-0.6l0.4,2.9c0.2,1.5,1.7,2.6,3.2,2.4c1.5-0.2,2.6-1.7,2.4-3.2l-0.4-2.9c1.9-0.3,3.7-0.7,5.5-1.1l0.7,2.8
			c0.4,1.5,1.9,2.4,3.4,2c1.5-0.4,2.4-1.9,2-3.4l-0.7-2.8c1.8-0.5,3.6-1.1,5.4-1.7l1,2.7c0.5,1.5,2.2,2.2,3.6,1.7v0
			c1.5-0.5,2.2-2.2,1.7-3.6l-1-2.7c1.8-0.7,3.5-1.4,5.2-2.2l1.2,2.6c0.7,1.4,2.4,2,3.8,1.3c1.4-0.7,2-2.4,1.3-3.8l-1.2-2.6
			c1.7-0.9,3.3-1.8,4.9-2.7l1.5,2.5c0.8,1.3,2.6,1.8,3.9,0.9c1.3-0.8,1.8-2.6,0.9-3.9l-1.5-2.5c1.6-1,3.1-2.1,4.7-3.2l1.7,2.3
			c0.9,1.2,2.7,1.5,4,0.5c1.2-0.9,1.5-2.7,0.5-4l-1.7-2.3c1.5-1.2,2.9-2.4,4.3-3.6l2,2.1c1.1,1.1,2.9,1.2,4,0.1
			c1.1-1.1,1.2-2.9,0.1-4l-2-2.1c1.3-1.3,2.7-2.7,3.9-4l2.2,1.9c1.2,1,3,0.9,4-0.2c1-1.2,0.9-3-0.2-4l-2.2-1.9
			c1.2-1.4,2.4-2.9,3.5-4.4l2.3,1.7c1.3,0.9,3,0.6,4-0.6c0.9-1.3,0.6-3-0.6-4l-2.3-1.7c1.1-1.6,2.1-3.1,3.1-4.7l2.5,1.4
			c1.4,0.8,3.1,0.3,3.9-1s0.3-3.1-1-3.9l-2.5-1.4c0.9-1.6,1.8-3.3,2.6-5l2.6,1.2c1.4,0.6,3.1,0,3.7-1.4c0.6-1.4,0-3.1-1.4-3.8
			l-2.6-1.2c0.7-1.7,1.4-3.5,2.1-5.3l2.7,0.9c1.5,0.5,3.1-0.3,3.6-1.8c0.5-1.5-0.3-3.1-1.8-3.6l-2.7-0.9c0.6-1.8,1.1-3.6,1.5-5.4
			l2.8,0.6c1.5,0.3,3-0.6,3.4-2.1c0.3-1.5-0.6-3-2.1-3.4l-2.8-0.6c0.4-1.8,0.7-3.7,1-5.6l2.8,0.4c1.5,0.2,3-0.9,3.2-2.5
			C309.2,469,308.1,467.6,306.6,467.4z M246.3,404.1c8.1-4.7,18.5-1.9,23.2,6.2c4.7,8.1,1.9,18.5-6.2,23.2
			c-8.1,4.7-18.5,1.9-23.2-6.2C235.3,419.2,238.1,408.8,246.3,404.1z M190.9,365c9.4,0,17,7.6,17,17s-7.6,17-17,17
			c-9.4,0-17-7.6-17-17S181.6,365,190.9,365z M202.3,455.7c0,6.3-5.1,11.3-11.3,11.3c-6.3,0-11.3-5.1-11.3-11.3
			c0-6.3,5.1-11.3,11.3-11.3C197.2,444.4,202.3,449.5,202.3,455.7z M135.6,404.1c8.1,4.7,10.9,15.1,6.2,23.2
			c-4.7,8.1-15.1,10.9-23.2,6.2c-8.1-4.7-10.9-15.1-6.2-23.2C117.1,402.2,127.5,399.4,135.6,404.1z M135.6,507.3
			c-8.1,4.7-18.5,1.9-23.2-6.2c-4.7-8.1-1.9-18.5,6.2-23.2c8.1-4.7,18.5-1.9,23.2,6.2C146.6,492.2,143.8,502.6,135.6,507.3z
			 M190.9,546.4c-9.4,0-17-7.6-17-17s7.6-17,17-17c9.4,0,17,7.6,17,17S200.3,546.4,190.9,546.4z M269.5,501.1
			c-4.7,8.1-15.1,10.9-23.2,6.2c-8.1-4.7-10.9-15.1-6.2-23.2c4.7-8.1,15.1-10.9,23.2-6.2C271.4,482.5,274.2,493,269.5,501.1z">

	  <animateTransform 
           xlink:href="#cran4"
           attributeName="transform" 
           attributeType="XML"
           type="rotate"
           from="360 190 456"
           to="0 190 456" 
           dur="140s"
           begin="0s"
           repeatCount="indefinite"                  
       />
		</path>

<path id="cran5" fill="#366B81" d="M510.8,348.2l-2.8-0.4l0,0c0.2-1.9,0.3-3.7,0.4-5.6l0,0l2.9,0.1c1.6,0,2.9-1.2,2.9-2.8
	c0-1.6-1.2-2.9-2.8-2.9l-2.9-0.1l0,0c0-1.9-0.1-3.8-0.1-5.6l0,0l2.9-0.2c1.6-0.1,2.7-1.5,2.6-3c-0.1-1.6-1.5-2.7-3-2.6l-2.9,0.2l0,0
	c-0.2-1.9-0.4-3.7-0.7-5.6l0,0l2.8-0.5c1.5-0.3,2.6-1.7,2.3-3.3c-0.3-1.5-1.7-2.6-3.3-2.3l-2.8,0.5l0,0c-0.4-1.8-0.8-3.7-1.2-5.5
	l0,0l2.7-0.8c1.5-0.4,2.4-2,2-3.5c-0.4-1.5-2-2.4-3.5-2l-2.7,0.8l0,0c-0.6-1.8-1.2-3.6-1.8-5.3l0,0l2.6-1c1.1-0.4,1.8-1.5,1.8-2.7
	c0-0.3-0.1-0.7-0.2-1c-0.6-1.5-2.2-2.2-3.7-1.6l-2.6,1c-0.7-1.7-1.5-3.5-2.3-5.1l2.5-1.3c1.4-0.7,1.9-2.4,1.2-3.8
	c-0.7-1.4-2.4-1.9-3.8-1.2l-2.5,1.3c-0.9-1.7-1.8-3.3-2.8-4.9l2.4-1.6c1.3-0.8,1.7-2.6,0.8-3.9c-0.8-1.3-2.6-1.7-3.9-0.8l-2.4,1.6
	c-0.9-1.3-1.8-2.5-2.7-3.7c-0.1-0.1-0.2-0.2-0.2-0.3c-0.1-0.2-0.3-0.4-0.4-0.6l2.3-1.8c1.2-1,1.4-2.8,0.4-4
	c-0.2-0.3-0.5-0.5-0.8-0.7c-1-0.6-2.3-0.5-3.2,0.2l-2.3,1.8l0,0c-1.2-1.4-2.5-2.8-3.7-4.2l0,0l2.1-2c1.1-1.1,1.1-2.9,0.1-4
	c-1.1-1.1-2.9-1.1-4-0.1l-2.1,2l0,0c-1.3-1.3-2.7-2.6-4.1-3.8l0,0l1.9-2.2c1-1.2,0.8-3-0.3-4c-1.2-1-3-0.8-4,0.3l-1.9,2.2l0,0
	c-1.5-1.2-3-2.3-4.5-3.4l0,0l1.6-2.4c0.9-1.3,0.5-3.1-0.7-3.9c-1.3-0.9-3.1-0.5-3.9,0.7l-1.6,2.4l0,0c-1.6-1-3.2-2-4.8-2.9l0,0
	l1.4-2.5c0.7-1.4,0.2-3.1-1.1-3.8s-3.1-0.2-3.8,1.1l-1.4,2.5l0,0c-1.7-0.9-3.4-1.7-5.1-2.5l0,0l1.1-2.7c0.6-1.4-0.1-3.1-1.5-3.7
	c-1.4-0.6-3.1,0.1-3.7,1.5l-1.1,2.6l0,0c-1.7-0.7-3.5-1.3-5.3-1.9l0,0l0.8-2.7c0.5-1.5-0.4-3.1-1.9-3.5c-1.5-0.5-3.1,0.4-3.5,1.9
	l-0.8,2.7l0,0c-1.8-0.5-3.6-1-5.5-1.4l0,0l0.6-2.8c0.3-1.5-0.7-3-2.2-3.3c-1.5-0.3-3,0.7-3.3,2.2l-0.6,2.8l0,0
	c-1.8-0.3-3.7-0.6-5.6-0.8l0,0l0.3-2.9c0.2-1.6-1-2.9-2.5-3.1c-1.6-0.2-2.9,1-3.1,2.5l-0.3,2.9l0,0c-1.9-0.1-3.7-0.2-5.6-0.3v0v-2.9
	c0-1.6-1.3-2.8-2.8-2.8c-1.6,0-2.8,1.3-2.8,2.8v2.9c-1.9,0-3.8,0.1-5.6,0.3l-0.3-2.9c-0.2-1.6-1.6-2.7-3.1-2.5
	c-1.6,0.2-2.7,1.6-2.5,3.1l0.3,2.9c-1.9,0.2-3.7,0.5-5.6,0.8l-0.6-2.8c-0.3-1.5-1.8-2.5-3.3-2.2c-1.5,0.3-2.5,1.8-2.2,3.3l0.6,2.8
	c-1.8,0.4-3.7,0.9-5.5,1.4l-0.8-2.7c-0.5-1.5-2.1-2.3-3.5-1.9c-1.5,0.5-2.3,2.1-1.9,3.5l0.8,2.7c-1.8,0.6-3.6,1.2-5.3,1.9l-1.1-2.6
	c-0.6-1.4-2.3-2.1-3.7-1.5c-1.4,0.6-2.1,2.3-1.5,3.7l1.1,2.6c-1.7,0.8-3.4,1.6-5.1,2.4l-1.4-2.5c-0.7-1.4-2.5-1.9-3.8-1.1
	c-1.4,0.7-1.9,2.5-1.1,3.8l1.4,2.5c-1.6,0.9-3.2,1.9-4.8,2.9l-1.6-2.4c-0.9-1.3-2.7-1.6-3.9-0.7c-1.3,0.9-1.6,2.7-0.7,3.9l1.6,2.4
	c-1.5,1.1-3,2.2-4.5,3.4l-1.8-2.2c-1-1.2-2.8-1.4-4-0.3c-1.2,1-1.4,2.8-0.3,4l1.8,2.2c-1.4,1.2-2.8,2.5-4.1,3.8l-2.1-2
	c-1.1-1.1-2.9-1.1-4,0c-1.1,1.1-1.1,2.9,0.1,4l2.1,2c-1.3,1.4-2.5,2.8-3.7,4.2l-2.2-1.8c-0.9-0.8-2.2-0.8-3.2-0.2
	c-0.3,0.2-0.5,0.4-0.8,0.6c-1,1.2-0.8,3,0.4,4l2.2,1.8c-1.1,1.5-2.2,3-3.3,4.6l-2.4-1.5c-1.3-0.8-3.1-0.5-3.9,0.8
	c-0.8,1.3-0.5,3.1,0.8,3.9l2.4,1.5c-1,1.6-1.9,3.2-2.8,4.9L293,281c-1.4-0.7-3.1-0.2-3.8,1.2c-0.7,1.4-0.2,3.1,1.2,3.8l2.5,1.3
	c-0.8,1.7-1.6,3.4-2.3,5.1l-2.6-1c-1.5-0.6-3.1,0.2-3.7,1.6c-0.1,0.3-0.2,0.7-0.2,1c0,1.1,0.7,2.2,1.8,2.7l2.6,1
	c-0.6,1.8-1.2,3.5-1.8,5.4l-2.7-0.8c-1.5-0.4-3.1,0.5-3.5,2c-0.4,1.5,0.5,3.1,2,3.5l2.7,0.8c-0.5,1.8-0.9,3.7-1.3,5.5l-2.8-0.5
	c-1.5-0.3-3,0.8-3.3,2.3c-0.3,1.5,0.8,3,2.3,3.3l2.8,0.5c-0.3,1.9-0.5,3.7-0.7,5.6l-2.8-0.2c-1.6-0.1-2.9,1.1-3,2.6
	c-0.1,1.6,1.1,2.9,2.6,3l2.8,0.2c-0.1,1.9-0.1,3.7-0.1,5.6l-2.8,0.1c-1.6,0-2.8,1.3-2.8,2.9c0,1.6,1.3,2.8,2.9,2.8l2.8-0.1
	c0.1,1.9,0.2,3.8,0.4,5.6l-2.8,0.4c-1.5,0.2-2.7,1.6-2.5,3.2c0.2,1.5,1.6,2.7,3.2,2.5l2.8-0.4c0.3,1.9,0.6,3.7,1,5.6l-2.8,0.6
	c-1.5,0.3-2.5,1.9-2.1,3.4c0.3,1.5,1.9,2.5,3.4,2.1l2.7-0.6c0.5,1.8,1,3.6,1.5,5.4l-2.7,0.9c-1.5,0.5-2.3,2.1-1.8,3.6
	c0.5,1.5,2.1,2.3,3.6,1.8l2.7-0.9c0.6,1.8,1.3,3.5,2.1,5.3l-2.6,1.2c-1.4,0.6-2.1,2.3-1.4,3.8c0.6,1.4,2.3,2.1,3.7,1.4l2.6-1.2
	c0.8,1.7,1.7,3.4,2.6,5l-2.4,1.4c-1.3,0.8-1.8,2.5-1,3.9c0.8,1.4,2.5,1.8,3.9,1l2.5-1.4c1,1.6,2,3.2,3.1,4.7l-2.3,1.7
	c-1.3,0.9-1.6,2.7-0.6,4c0.9,1.3,2.7,1.6,4,0.6l2.3-1.7c1.1,1.5,2.3,3,3.5,4.4l-2.1,1.9c-1.2,1-1.3,2.8-0.2,4c1,1.2,2.8,1.3,4,0.2
	l2.1-1.9c1.3,1.4,2.6,2.7,3.9,4l-2,2.1c-1.1,1.1-1,2.9,0.1,4c1.1,1.1,2.9,1,4-0.1l2-2.1c1.4,1.2,2.8,2.5,4.3,3.6l-1.7,2.3
	c-0.9,1.2-0.7,3,0.5,4c1.2,0.9,3,0.7,4-0.5l1.7-2.3c1.5,1.1,3.1,2.2,4.7,3.2l-1.5,2.4c-0.8,1.3-0.4,3.1,0.9,3.9
	c1.3,0.8,3.1,0.4,3.9-0.9l1.5-2.4c1.6,0.9,3.3,1.8,4.9,2.7l-1.2,2.6c-0.7,1.4-0.1,3.1,1.3,3.8c1.4,0.7,3.1,0.1,3.8-1.3l1.2-2.6
	c1.7,0.8,3.4,1.5,5.2,2.2l-1,2.7c-0.5,1.5,0.2,3.1,1.7,3.6c1.5,0.5,3.1-0.2,3.6-1.7l1-2.7c1.8,0.6,3.6,1.1,5.4,1.7l-0.7,2.8
	c-0.4,1.5,0.5,3.1,2,3.4c1.5,0.4,3.1-0.5,3.4-2l0.7-2.8c1.8,0.4,3.7,0.8,5.5,1.1L375,451c-0.2,1.2,0.4,2.3,1.4,2.9
	c0.3,0.2,0.6,0.3,0.9,0.3c1.5,0.2,3-0.8,3.2-2.4l0.4-2.9c1.9,0.2,3.7,0.4,5.6,0.6l-0.1,2.9c-0.1,1.6,1.1,2.9,2.7,3
	c1.6,0.1,2.9-1.1,3-2.7l0.1-2.9c0.9,0,1.9,0.1,2.8,0.1c0,0,0,0,0,0s0,0,0,0c0.9,0,1.9,0,2.8-0.1l0.1,2.9c0.1,1.6,1.4,2.8,3,2.7
	c1.6-0.1,2.8-1.4,2.7-3l-0.1-2.9c0,0,0.1,0,0.1,0c1.8-0.1,3.6-0.3,5.3-0.5c0.1,0,0.1,0,0.2,0l0.4,2.9c0.2,1.5,1.7,2.6,3.2,2.4
	c0.3-0.1,0.7-0.2,1-0.3c1-0.6,1.6-1.7,1.4-2.9l-0.4-2.9l0,0c1.9-0.3,3.7-0.7,5.5-1.1l0,0l0.7,2.8c0.4,1.5,1.9,2.4,3.4,2
	c1.5-0.4,2.4-1.9,2-3.4l-0.7-2.8l0,0c1.8-0.5,3.6-1.1,5.4-1.7l0,0l1,2.7c0.5,1.5,2.2,2.2,3.6,1.7c1.5-0.5,2.2-2.2,1.7-3.6l-1-2.7
	l0,0c1.8-0.7,3.5-1.4,5.2-2.2l0,0l1.2,2.6c0.7,1.4,2.4,2,3.8,1.3c1.4-0.7,2-2.4,1.3-3.8l-1.2-2.6l0,0c1.7-0.9,3.3-1.8,4.9-2.7l0,0
	l1.5,2.5c0.8,1.3,2.6,1.8,3.9,0.9h0c1.3-0.8,1.8-2.6,0.9-3.9l-1.5-2.5l0,0c1.6-1,3.1-2.1,4.7-3.2l0,0l1.7,2.3c0.9,1.2,2.7,1.5,4,0.5
	c1.2-0.9,1.5-2.7,0.5-4l-1.7-2.3l0,0c1.5-1.2,2.9-2.4,4.3-3.6l0,0l2,2.1c1.1,1.1,2.9,1.2,4,0.1c1.1-1.1,1.2-2.9,0.1-4l-2-2.1l0,0
	c1.3-1.3,2.7-2.7,3.9-4l0,0l2.2,1.9c1.2,1,3,0.9,4-0.2c1-1.2,0.9-3-0.2-4l-2.2-1.9l0,0c1.2-1.4,2.4-2.9,3.5-4.4l0,0l2.3,1.7
	c1.3,0.9,3,0.6,4-0.6c0.9-1.3,0.6-3-0.6-4l-2.3-1.7l0,0c1.1-1.6,2.1-3.1,3.1-4.7l0,0l2.5,1.4c1.4,0.8,3.1,0.3,3.9-1
	c0.8-1.4,0.3-3.1-1-3.9l-2.5-1.4l0,0c0.9-1.6,1.8-3.3,2.6-5l0,0l2.6,1.2c1.4,0.6,3.1,0,3.7-1.4c0.6-1.4,0-3.1-1.4-3.8l-2.6-1.2l0,0
	c0.7-1.7,1.4-3.5,2.1-5.2l0,0l2.7,0.9c1.5,0.5,3.1-0.3,3.6-1.8c0.5-1.5-0.3-3.1-1.8-3.6l-2.7-0.9l0,0c0.6-1.8,1.1-3.6,1.5-5.4l0,0
	l2.8,0.6c1.5,0.3,3-0.6,3.4-2.1c0.3-1.5-0.6-3-2.1-3.4l-2.8-0.6l0,0c0.4-1.8,0.7-3.7,1-5.6l0,0l2.8,0.4c1.5,0.2,3-0.9,3.2-2.5
	C513.4,349.8,512.3,348.4,510.8,348.2z M485.8,336.5c0,47.3-36.2,86.2-82.5,90.3c-6.2-25.9-2.9-54.1,11.4-79
	c14.4-24.9,37.1-41.8,62.7-49.4C482.8,310,485.8,322.9,485.8,336.5z M395.1,347.9c-6.3,0-11.3-5.1-11.3-11.3
	c0-6.3,5.1-11.3,11.3-11.3c6.3,0,11.3,5.1,11.3,11.3C406.4,342.8,401.3,347.9,395.1,347.9z M404.5,313.4c-32,2.8-61.9-8.7-83.5-29.2
	c16.4-23.2,43.5-38.4,74.1-38.4c30.6,0,57.7,15.2,74.1,38.4C452.1,300.4,429.7,311.2,404.5,313.4z M304.4,336.5
	c0-13.6,3-26.5,8.4-38.1c25.5,7.6,48.4,24.5,62.7,49.4c14.4,24.9,17.6,53.1,11.4,79C340.6,422.7,304.4,383.9,304.4,336.5z">

	  <animateTransform 
           xlink:href="#cran5"
           attributeName="transform" 
           attributeType="XML"
           type="rotate"
           from="0 395.05 336.48"
           to="360 395.05 336.48" 
           dur="140s"
           begin="0s"
           repeatCount="indefinite"                  
       />

</path>

		<path id="cran6" fill="#B69B49" d="M234.8,286.6c0.2,0.2,0.5,0.4,0.8,0.5c1.8,0.8,3.9,0,4.7-1.8s0-3.9-1.8-4.7c-0.3-0.1-0.6-0.2-0.9-0.3
			c-0.5-0.3-0.7-0.9-0.7-1.4c0-0.2,0.1-0.3,0.1-0.5c0-0.2,0.1-0.3,0.1-0.5c0.3-0.6,1-1,1.8-0.9l0.8,0.2c0.5,0.1,0.9-0.2,1-0.7
			c0.1-0.5-0.2-0.9-0.7-1l-0.8-0.2c-0.7-0.1-1.2-0.7-1.3-1.4c0-0.5,0.1-0.8,0.1-1c0.2-0.7,0.9-1.1,1.6-1.1l0.8,0
			c0.5,0,0.8-0.3,0.9-0.8c0-0.5-0.3-0.8-0.8-0.9l-0.8,0c-0.7,0-1.3-0.5-1.5-1.2c0-0.2,0-0.3,0-0.5c0-0.2,0-0.3,0-0.5
			c0.1-0.7,0.7-1.2,1.4-1.3l0.8-0.1c0.5-0.1,0.8-0.5,0.7-0.9c-0.1-0.5-0.5-0.8-0.9-0.7l-0.8,0.1c-0.7,0.1-1.4-0.3-1.7-1
			c0-0.2,0-0.3-0.1-0.5c0-0.2-0.1-0.3-0.1-0.5c0-0.7,0.5-1.4,1.2-1.6l0.8-0.2c0.4-0.1,0.7-0.6,0.6-1c-0.1-0.4-0.6-0.7-1-0.6
			l-0.8,0.2c-0.7,0.2-1.5-0.1-1.8-0.7c0-0.1-0.1-0.3-0.1-0.4c-0.1-0.1-0.1-0.3-0.2-0.4c-0.1-0.7,0.3-1.4,1-1.7l0.8-0.3
			c0.4-0.2,0.6-0.7,0.4-1.1c-0.2-0.4-0.7-0.6-1.1-0.4l-0.8,0.3c-0.7,0.3-1.5,0.1-1.9-0.5c-0.1-0.1-0.1-0.3-0.2-0.4
			c-0.1-0.1-0.1-0.3-0.2-0.4c-0.2-0.7,0.1-1.5,0.7-1.9l0.7-0.4c0.4-0.2,0.5-0.8,0.3-1.1c-0.2-0.4-0.8-0.5-1.1-0.3l-0.7,0.4
			c-0.6,0.4-1.4,0.3-2-0.2c-0.1-0.1-0.2-0.3-0.3-0.4c-0.1-0.1-0.2-0.2-0.3-0.4c-0.3-0.7-0.1-1.5,0.4-1.9l0.6-0.5
			c0.3-0.3,0.4-0.8,0.1-1.2c-0.3-0.3-0.8-0.4-1.2-0.1l-0.6,0.5c-0.6,0.5-1.4,0.5-2,0.1c-0.1-0.1-0.2-0.2-0.3-0.4
			c-0.1-0.1-0.2-0.2-0.3-0.3c-0.4-0.6-0.4-1.4,0.1-2l0.5-0.6c0.3-0.3,0.3-0.9-0.1-1.2c-0.3-0.3-0.9-0.3-1.2,0.1l-0.5,0.6
			c-0.5,0.6-1.3,0.7-1.9,0.4c-0.1-0.1-0.3-0.2-0.4-0.3c-0.1-0.1-0.3-0.2-0.4-0.3c-0.5-0.5-0.6-1.3-0.2-2l0.4-0.7
			c0.2-0.4,0.1-0.9-0.3-1.1c-0.4-0.2-0.9-0.1-1.1,0.3l-0.4,0.7c-0.4,0.6-1.2,0.9-1.9,0.7c-0.1-0.1-0.3-0.2-0.4-0.2
			c-0.1-0.1-0.3-0.1-0.4-0.2c-0.6-0.5-0.8-1.3-0.5-2l0.3-0.8c0.2-0.4,0-0.9-0.4-1.1s-0.9,0-1.1,0.4l-0.3,0.8c-0.3,0.7-1,1.1-1.7,1
			c-0.1-0.1-0.3-0.1-0.4-0.2c-0.1,0-0.3-0.1-0.4-0.1c-0.6-0.4-1-1.1-0.8-1.9l0.2-0.8c0.1-0.4-0.1-0.9-0.6-1c-0.4-0.1-0.9,0.1-1,0.6
			l-0.2,0.8c-0.2,0.7-0.8,1.2-1.6,1.2c-0.2,0-0.3-0.1-0.5-0.1c-0.1,0-0.3,0-0.4-0.1c-0.7-0.3-1.1-1-1-1.7l0.1-0.8
			c0.1-0.5-0.3-0.9-0.7-0.9c-0.5-0.1-0.9,0.3-0.9,0.7l-0.1,0.8c-0.1,0.7-0.6,1.3-1.3,1.4c-0.2,0-0.3,0-0.5,0c-0.1,0-0.3,0-0.4,0
			c-0.7-0.2-1.2-0.8-1.2-1.5l0-0.8c0-0.5-0.4-0.8-0.9-0.8c-0.5,0-0.8,0.4-0.8,0.9l0,0.8c0,0.8-0.5,1.4-1.1,1.6c-0.2,0-0.3,0-0.5,0
			c-0.1,0-0.3,0-0.4,0.1c-0.7-0.1-1.3-0.6-1.5-1.3l-0.2-0.8c-0.1-0.5-0.5-0.8-1-0.7c-0.5,0.1-0.8,0.5-0.7,1l0.2,0.8
			c0.1,0.7-0.2,1.5-0.9,1.8c-0.2,0-0.3,0.1-0.5,0.1c-0.1,0-0.3,0.1-0.4,0.1c-0.7,0-1.4-0.4-1.7-1.1l-0.3-0.8
			c-0.2-0.4-0.6-0.7-1.1-0.5c-0.4,0.2-0.7,0.6-0.5,1.1l0.3,0.8c0.2,0.7,0,1.5-0.6,1.9c-0.2,0.1-0.3,0.1-0.5,0.2
			c-0.1,0.1-0.2,0.1-0.4,0.2c-0.7,0.1-1.5-0.2-1.8-0.9l-0.4-0.7c-0.2-0.4-0.7-0.6-1.1-0.3c-0.4,0.2-0.6,0.7-0.3,1.1l0.4,0.7
			c0.3,0.7,0.2,1.4-0.3,1.9c-0.2,0.1-0.3,0.2-0.5,0.3c-0.1,0.1-0.2,0.2-0.4,0.2c-0.7,0.2-1.4,0-1.9-0.6l-0.5-0.7
			c-0.3-0.4-0.8-0.4-1.2-0.2c-0.4,0.3-0.4,0.8-0.2,1.2l0.5,0.7c0.4,0.6,0.4,1.4,0,1.9c-0.1,0.1-0.3,0.2-0.4,0.4
			c-0.1,0.1-0.2,0.2-0.3,0.3c-0.6,0.3-1.4,0.2-1.9-0.3l-0.6-0.6c-0.3-0.3-0.9-0.3-1.2,0c-0.3,0.3-0.3,0.9,0,1.2l0.6,0.6
			c0.5,0.5,0.6,1.3,0.3,1.9c-0.1,0.1-0.3,0.3-0.4,0.4c-0.1,0.1-0.2,0.2-0.3,0.3c-0.6,0.4-1.4,0.4-2,0l-0.7-0.5
			c-0.4-0.3-0.9-0.2-1.2,0.2c-0.3,0.4-0.2,0.9,0.2,1.2l0.7,0.5c0.6,0.4,0.8,1.2,0.6,1.9c-0.1,0.2-0.2,0.3-0.3,0.5
			c-0.1,0.1-0.1,0.2-0.2,0.4c-0.5,0.5-1.3,0.6-2,0.3l-0.2-0.1c-0.2-0.1-0.4-0.3-0.6-0.4c-1.8-0.8-3.9,0-4.7,1.8
			c-0.8,1.8,0,3.9,1.8,4.7c0.4,0.2,0.8,0.3,1.2,0.3c0.5,0.3,0.9,0.9,0.8,1.5c-0.1,0.3-0.2,0.6-0.3,1c-0.3,0.6-1,1-1.8,0.8l-0.8-0.2
			c-0.5-0.1-0.9,0.2-1,0.7c-0.1,0.5,0.2,0.9,0.7,1l0.8,0.2c0.7,0.1,1.2,0.7,1.3,1.4c0,0.3-0.1,0.7-0.1,1c-0.2,0.7-0.9,1.1-1.6,1.1
			l-0.8,0c-0.5,0-0.8,0.3-0.9,0.8c0,0.5,0.3,0.8,0.8,0.9l0.8,0c0.7,0,1.3,0.5,1.5,1.2c0,0.3,0,0.7,0,1c-0.1,0.7-0.7,1.2-1.4,1.3
			l-0.8,0.1c-0.5,0.1-0.8,0.5-0.7,0.9c0.1,0.5,0.5,0.8,0.9,0.7l0.8-0.1c0.7-0.1,1.4,0.3,1.7,1c0.1,0.3,0.1,0.7,0.2,1
			c0,0.7-0.5,1.3-1.2,1.5l-0.8,0.2c-0.4,0.1-0.7,0.6-0.6,1c0.1,0.4,0.6,0.7,1,0.6l0.8-0.2c0.7-0.2,1.4,0.1,1.8,0.7
			c0.1,0.3,0.2,0.6,0.3,0.9c0.1,0.7-0.3,1.4-1,1.7l-0.8,0.3c-0.4,0.2-0.6,0.7-0.4,1.1c0.2,0.4,0.7,0.6,1.1,0.4l0.8-0.3
			c0.7-0.3,1.4-0.1,1.9,0.4c0.2,0.3,0.3,0.6,0.5,0.9c0.2,0.7-0.1,1.4-0.7,1.8l-0.7,0.4c-0.4,0.2-0.5,0.8-0.3,1.1
			c0.2,0.4,0.8,0.5,1.1,0.3l0.7-0.4c0.6-0.4,1.4-0.3,1.9,0.1c0.2,0.3,0.4,0.6,0.6,0.8c0.3,0.6,0.1,1.4-0.4,1.9l-0.6,0.5
			c-0.3,0.3-0.4,0.8-0.1,1.2c0.3,0.3,0.8,0.4,1.2,0.1l0.6-0.5c0.6-0.5,1.3-0.5,1.9-0.2c0.2,0.3,0.5,0.5,0.7,0.8
			c0.4,0.6,0.3,1.4-0.2,1.9l-0.5,0.6c-0.3,0.3-0.3,0.9,0.1,1.2c0.3,0.3,0.9,0.3,1.2-0.1l0.5-0.6c0.5-0.6,1.2-0.7,1.9-0.4
			c0.3,0.2,0.6,0.4,0.8,0.6c0.4,0.5,0.5,1.3,0.1,1.9l-0.4,0.7c-0.2,0.4-0.1,0.9,0.3,1.1c0.4,0.2,0.9,0.1,1.1-0.3l0.4-0.7
			c0.4-0.6,1.1-0.9,1.8-0.7c0.3,0.2,0.6,0.3,0.9,0.5c0.5,0.5,0.7,1.2,0.4,1.9l-0.3,0.8c-0.2,0.4,0,0.9,0.4,1.1
			c0.4,0.2,0.9,0,1.1-0.4l0.3-0.8c0.3-0.7,1-1.1,1.7-1c0.3,0.1,0.6,0.2,0.9,0.3c0.6,0.4,0.9,1.1,0.7,1.8l-0.2,0.8
			c-0.1,0.4,0.1,0.9,0.6,1c0.4,0.1,0.9-0.1,1-0.6l0.2-0.8c0.2-0.7,0.8-1.2,1.5-1.2c0.3,0.1,0.7,0.1,1,0.2c0.6,0.3,1,1,1,1.7
			l-0.1,0.8c-0.1,0.5,0.3,0.9,0.7,0.9c0.5,0.1,0.9-0.3,0.9-0.7l0.1-0.8c0.1-0.7,0.6-1.3,1.3-1.4c0.4,0,0.7,0,1.1,0
			c0.7,0.2,1.2,0.8,1.2,1.5l0,0.8c0,0.5,0.4,0.8,0.9,0.8c0.5,0,0.8-0.4,0.8-0.9l0-0.8c0-0.7,0.4-1.4,1.1-1.6c0.3,0,0.7-0.1,1-0.1
			c0.7,0.1,1.3,0.6,1.4,1.3l0.2,0.8c0.1,0.5,0.5,0.8,1,0.7c0.5-0.1,0.8-0.5,0.7-1l-0.2-0.8c-0.1-0.7,0.2-1.4,0.9-1.8
			c0.3-0.1,0.7-0.2,1-0.3c0.7,0,1.4,0.4,1.6,1.1l0.3,0.8c0.2,0.4,0.6,0.7,1.1,0.5c0.4-0.2,0.7-0.6,0.5-1.1l-0.3-0.8
			c-0.2-0.7,0-1.5,0.6-1.9c0.3-0.1,0.6-0.3,0.9-0.4c0.7-0.1,1.4,0.2,1.8,0.9l0.4,0.7c0.2,0.4,0.7,0.6,1.1,0.3
			c0.4-0.2,0.6-0.7,0.3-1.1l-0.4-0.7c-0.3-0.7-0.2-1.4,0.3-1.9c0.3-0.2,0.6-0.3,0.8-0.5c0.7-0.2,1.4,0,1.9,0.6l0.5,0.7
			c0.3,0.4,0.8,0.4,1.2,0.2s0.4-0.8,0.2-1.2l-0.5-0.7c-0.4-0.6-0.4-1.4,0-1.9c0.3-0.2,0.5-0.4,0.8-0.7c0.6-0.3,1.4-0.2,1.9,0.3
			l0.6,0.6c0.3,0.3,0.9,0.3,1.2,0c0.3-0.3,0.3-0.9,0-1.2l-0.6-0.6c-0.5-0.5-0.6-1.3-0.3-1.9c0.2-0.3,0.5-0.5,0.7-0.8
			c0.6-0.4,1.4-0.4,2,0l0.7,0.5c0.4,0.3,0.9,0.2,1.2-0.2s0.2-0.9-0.2-1.2l-0.7-0.5c-0.6-0.4-0.8-1.2-0.6-1.9
			c0.2-0.3,0.4-0.6,0.5-0.8C233.7,286.7,234.2,286.5,234.8,286.6z M237.7,282.1c0.9,0.4,1.3,1.5,0.9,2.4s-1.5,1.3-2.4,0.9
			c-0.9-0.4-1.3-1.5-0.9-2.4C235.8,282.1,236.8,281.7,237.7,282.1z M171.4,256.9c-0.9-0.4-1.3-1.5-0.9-2.4s1.5-1.3,2.4-0.9
			s1.3,1.5,0.9,2.4C173.4,256.9,172.3,257.3,171.4,256.9z M202.6,296.3c-0.1,0-0.1,0-0.2,0c-0.3,0-0.5-0.1-0.8-0.1
			c-0.3,0-0.5-0.1-0.8-0.1c-0.1,0-0.1,0-0.2,0c-1.4-0.2-2.8-0.6-4.2-1.1c-0.7-0.2-1.4-0.5-2.2-0.8c-0.8-0.3-1.5-0.7-2.2-1.1
			c-9.9-5.5-15.1-16.5-13.5-27.4c0-0.2,0.1-0.4,0.1-0.5c0,0,0-0.1,0-0.1c0.4-2.1,1-4.1,1.9-6.2c6-13.6,21.8-19.7,35.3-13.8
			c13.6,6,19.7,21.8,13.8,35.3C224.8,291.2,213.8,297.3,202.6,296.3z"></path>

			<path id="cran7" fill="#366B81" d="M238.2,461.2c0.4,0.1,0.9,0.2,1.3,0.2c2.8,0,5-2.2,5-5c0-2.8-2.2-5-5-5c-0.4,0-0.8,0.1-1.2,0.2
				c-0.8-0.1-1.4-0.7-1.7-1.4c0-0.2,0-0.4-0.1-0.6c0-0.2-0.1-0.5-0.1-0.7c0.1-1,0.8-1.8,1.8-2.1l1.1-0.3c0.6-0.1,1-0.8,0.9-1.4
				c-0.1-0.6-0.8-1-1.4-0.9l-1.1,0.3c-1,0.2-2-0.2-2.5-1.1c-0.3-0.6-0.3-1.1-0.4-1.3c-0.1-1,0.5-1.9,1.5-2.3l1.1-0.4
				c0.6-0.2,0.9-0.9,0.7-1.5s-0.9-0.9-1.5-0.7l-1.1,0.4c-0.9,0.4-2,0.1-2.6-0.7c-0.1-0.2-0.2-0.4-0.3-0.6c-0.1-0.2-0.2-0.4-0.3-0.6
				c-0.2-1,0.2-2,1.1-2.5l1-0.6c0.6-0.3,0.7-1,0.4-1.6c-0.3-0.6-1-0.7-1.6-0.4l-1,0.6c-0.9,0.5-2,0.4-2.7-0.3
				c-0.1-0.2-0.2-0.4-0.4-0.6c-0.1-0.2-0.3-0.4-0.4-0.5c-0.4-0.9-0.1-2,0.7-2.7l0.9-0.7c0.5-0.4,0.6-1.1,0.2-1.6
				c-0.4-0.5-1.1-0.6-1.6-0.2l-0.9,0.7c-0.8,0.7-1.9,0.6-2.7,0.1c-0.1-0.2-0.3-0.3-0.4-0.5c-0.1-0.2-0.3-0.3-0.5-0.5
				c-0.5-0.9-0.4-2,0.3-2.8l0.8-0.8c0.4-0.5,0.4-1.2-0.1-1.6c-0.5-0.4-1.2-0.4-1.6,0.1l-0.8,0.8c-0.7,0.8-1.8,0.9-2.7,0.5
				c-0.2-0.1-0.3-0.3-0.5-0.4c-0.2-0.1-0.3-0.3-0.5-0.4c-0.6-0.8-0.7-1.9-0.1-2.8l0.7-1c0.4-0.5,0.2-1.2-0.3-1.6
				c-0.5-0.4-1.2-0.2-1.6,0.3l-0.7,1c-0.6,0.9-1.7,1.2-2.6,0.9c-0.2-0.1-0.4-0.2-0.5-0.3c-0.2-0.1-0.4-0.2-0.6-0.3
				c-0.7-0.7-1-1.8-0.5-2.7l0.5-1c0.3-0.6,0-1.3-0.5-1.5c-0.6-0.3-1.3,0-1.5,0.5l-0.5,1c-0.4,0.9-1.4,1.4-2.4,1.3
				c-0.2-0.1-0.4-0.2-0.6-0.3c-0.2-0.1-0.4-0.1-0.6-0.2c-0.8-0.6-1.2-1.6-0.9-2.6l0.3-1.1c0.2-0.6-0.2-1.3-0.8-1.4
				c-0.6-0.2-1.3,0.2-1.4,0.8l-0.3,1.1c-0.3,1-1.2,1.6-2.2,1.6c-0.2-0.1-0.4-0.1-0.6-0.2c-0.2,0-0.4-0.1-0.6-0.1
				c-0.9-0.4-1.5-1.4-1.3-2.4l0.2-1.1c0.1-0.6-0.3-1.2-1-1.3s-1.2,0.3-1.3,1l-0.2,1.1c-0.2,1-1,1.8-2,1.9c-0.2,0-0.4,0-0.6-0.1
				c-0.2,0-0.4,0-0.6,0c-1-0.3-1.7-1.2-1.7-2.2v-1.2c0-0.6-0.5-1.2-1.2-1.2s-1.2,0.5-1.2,1.2v1.2c0,1.1-0.7,1.9-1.7,2.2
				c-0.2,0-0.4,0-0.6,0c-0.2,0-0.4,0-0.6,0.1c-1-0.1-1.8-0.9-2-1.9l-0.2-1.1c-0.1-0.6-0.7-1.1-1.3-1c-0.6,0.1-1.1,0.7-1,1.3l0.2,1.1
				c0.2,1-0.4,2-1.3,2.4c-0.2,0-0.5,0.1-0.7,0.1c-0.2,0-0.4,0.1-0.6,0.2c-1,0-1.9-0.6-2.2-1.6l-0.3-1.1c-0.2-0.6-0.8-1-1.4-0.8
				c-0.6,0.2-1,0.8-0.8,1.4l0.3,1.1c0.3,1-0.1,2-0.9,2.6c-0.2,0.1-0.4,0.2-0.7,0.2c-0.2,0.1-0.4,0.2-0.6,0.2c-1,0.2-2-0.3-2.4-1.3
				l-0.5-1c-0.3-0.6-1-0.8-1.5-0.5c-0.6,0.3-0.8,1-0.5,1.5l0.5,1c0.5,0.9,0.2,2-0.5,2.7c-0.2,0.1-0.4,0.2-0.6,0.3
				c-0.2,0.1-0.3,0.2-0.5,0.3c-0.9,0.3-2,0-2.6-0.9l-0.7-1c-0.4-0.5-1.1-0.7-1.6-0.3c-0.5,0.4-0.7,1.1-0.3,1.6l0.7,1
				c0.6,0.9,0.5,2-0.1,2.8c-0.2,0.1-0.4,0.3-0.6,0.4c-0.1,0.1-0.3,0.2-0.4,0.4c-0.9,0.5-2,0.3-2.7-0.5l-0.8-0.8
				c-0.4-0.5-1.2-0.5-1.6-0.1c-0.5,0.4-0.5,1.2-0.1,1.6l0.8,0.8c0.7,0.8,0.8,1.9,0.3,2.7c-0.2,0.2-0.3,0.3-0.5,0.5
				c-0.1,0.1-0.2,0.3-0.4,0.4c-0.8,0.6-1.9,0.6-2.8-0.1l-0.9-0.7c-0.5-0.4-1.2-0.3-1.6,0.2c-0.4,0.5-0.3,1.2,0.2,1.6l0.9,0.7
				c0.8,0.6,1.1,1.7,0.7,2.6c-0.1,0.2-0.3,0.4-0.4,0.6c-0.1,0.2-0.2,0.3-0.3,0.5c-0.7,0.7-1.8,0.8-2.7,0.3l-1-0.6
				c-0.6-0.3-1.3-0.1-1.6,0.4c-0.3,0.6-0.1,1.3,0.4,1.6l1,0.6c0.9,0.5,1.3,1.5,1.1,2.5c-0.1,0.2-0.2,0.5-0.4,0.7
				c-0.1,0.2-0.2,0.4-0.3,0.6c-0.6,0.7-1.7,1.1-2.6,0.7l-1.1-0.4c-0.6-0.2-1.3,0.1-1.5,0.7c-0.2,0.6,0.1,1.3,0.7,1.5l1.1,0.4
				c1,0.4,1.5,1.3,1.5,2.3c-0.1,0.3-0.2,0.5-0.3,0.8c-0.1,0.2-0.1,0.4-0.2,0.6c-0.5,0.8-1.5,1.3-2.5,1.1l-1.1-0.3
				c-0.6-0.1-1.2,0.2-1.4,0.9s0.2,1.2,0.9,1.4l1.1,0.3c1,0.2,1.7,1.1,1.8,2.1c0,0.3-0.1,0.5-0.1,0.8c0,0.2,0,0.4-0.1,0.6
				c-0.4,0.9-1.3,1.5-2.3,1.5l-0.3,0c-0.3-0.1-0.7-0.1-1-0.1c-2.8,0-5,2.2-5,5c0,2.8,2.2,5,5,5c0.6,0,1.2-0.1,1.7-0.3
				c0.9,0.1,1.6,0.7,1.9,1.4c0.1,0.5,0.1,0.9,0.2,1.4c-0.1,1-0.8,1.8-1.8,2l-1.1,0.3c-0.6,0.1-1,0.8-0.9,1.4c0.1,0.6,0.8,1,1.4,0.9
				l1.1-0.3c1-0.2,2,0.2,2.5,1.1c0.1,0.5,0.3,0.9,0.4,1.4c0.1,1-0.5,1.9-1.5,2.3l-1.1,0.4c-0.6,0.2-0.9,0.9-0.7,1.5s0.9,0.9,1.5,0.7
				l1.1-0.4c0.9-0.4,2-0.1,2.6,0.7c0.2,0.4,0.4,0.9,0.6,1.3c0.2,1-0.2,2-1.1,2.5l-1,0.6c-0.6,0.3-0.7,1-0.4,1.6
				c0.3,0.6,1,0.7,1.6,0.4l1-0.6c0.9-0.5,2-0.4,2.7,0.3c0.3,0.4,0.5,0.8,0.8,1.1c0.4,0.9,0.1,2-0.7,2.6l-0.9,0.7
				c-0.5,0.4-0.6,1.1-0.2,1.6c0.4,0.5,1.1,0.6,1.6,0.2l0.9-0.7c0.8-0.6,1.9-0.6,2.7-0.1c0.3,0.3,0.6,0.7,0.9,1
				c0.5,0.9,0.4,2-0.3,2.7l-0.8,0.8c-0.4,0.5-0.4,1.2,0.1,1.6c0.5,0.4,1.2,0.4,1.6-0.1l0.8-0.8c0.7-0.7,1.8-0.9,2.6-0.5
				c0.4,0.3,0.7,0.6,1.1,0.9c0.6,0.8,0.7,1.9,0.1,2.7l-0.7,1c-0.4,0.5-0.2,1.2,0.3,1.6c0.5,0.4,1.2,0.2,1.6-0.3l0.7-1
				c0.6-0.8,1.6-1.2,2.5-0.9c0.4,0.2,0.8,0.5,1.2,0.7c0.7,0.7,0.9,1.7,0.5,2.7l-0.5,1c-0.3,0.6,0,1.3,0.5,1.5c0.6,0.3,1.3,0,1.5-0.5
				l0.5-1c0.4-0.9,1.4-1.4,2.3-1.3c0.5,0.2,0.9,0.4,1.4,0.5c0.8,0.6,1.2,1.6,0.9,2.5l-0.3,1.1c-0.2,0.6,0.2,1.3,0.8,1.4
				c0.6,0.2,1.3-0.2,1.4-0.8l0.3-1.1c0.3-1,1.2-1.6,2.1-1.6c0.5,0.1,0.9,0.2,1.4,0.3c0.9,0.4,1.4,1.4,1.2,2.4l-0.2,1.1
				c-0.1,0.6,0.3,1.2,1,1.3c0.6,0.1,1.2-0.3,1.3-1l0.2-1.1c0.2-1,0.9-1.8,1.9-1.9c0.5,0,0.9,0.1,1.4,0.1c0.9,0.3,1.6,1.2,1.6,2.2
				v1.2c0,0.6,0.5,1.2,1.2,1.2s1.2-0.5,1.2-1.2v-1.2c0-1,0.7-1.9,1.6-2.2c0.5,0,0.9-0.1,1.4-0.1c1,0.1,1.8,0.9,1.9,1.9l0.2,1.1
				c0.1,0.6,0.7,1.1,1.3,1c0.6-0.1,1.1-0.7,1-1.3l-0.2-1.1c-0.2-1,0.4-1.9,1.2-2.4c0.5-0.1,0.9-0.2,1.4-0.3c1,0,1.9,0.6,2.2,1.6
				l0.3,1.1c0.2,0.6,0.8,1,1.4,0.8c0.6-0.2,1-0.8,0.8-1.4l-0.3-1.1c-0.3-1,0.1-2,0.8-2.5c0.5-0.2,0.9-0.4,1.4-0.5
				c1-0.1,1.9,0.4,2.4,1.3l0.5,1c0.3,0.6,1,0.8,1.5,0.5c0.6-0.3,0.8-1,0.5-1.5l-0.5-1c-0.4-0.9-0.2-2,0.5-2.6
				c0.4-0.2,0.8-0.5,1.2-0.7c0.9-0.3,2,0.1,2.5,0.9l0.7,1c0.4,0.5,1.1,0.7,1.6,0.3c0.5-0.4,0.7-1.1,0.3-1.6l-0.7-1
				c-0.6-0.9-0.5-1.9,0.1-2.7c0.4-0.3,0.7-0.6,1.1-0.9c0.9-0.4,2-0.2,2.7,0.5l0.8,0.8c0.4,0.5,1.2,0.5,1.6,0.1
				c0.5-0.4,0.5-1.2,0.1-1.6l-0.8-0.8c-0.7-0.8-0.8-1.9-0.3-2.7c0.3-0.3,0.6-0.7,0.9-1c0.8-0.5,1.9-0.5,2.7,0.1l0.9,0.7
				c0.5,0.4,1.2,0.3,1.6-0.2c0.4-0.5,0.3-1.2-0.2-1.6l-0.9-0.7c-0.8-0.6-1.1-1.7-0.7-2.6c0.3-0.4,0.5-0.8,0.8-1.1
				c0.7-0.7,1.8-0.8,2.7-0.3l1,0.6c0.6,0.3,1.3,0.1,1.6-0.4c0.3-0.6,0.1-1.3-0.4-1.6l-1-0.6c-0.9-0.5-1.3-1.5-1.1-2.5
				c0.2-0.4,0.4-0.8,0.6-1.3c0.6-0.7,1.7-1.1,2.6-0.7l1.1,0.4c0.6,0.2,1.3-0.1,1.5-0.7c0.2-0.6-0.1-1.3-0.7-1.5l-1.1-0.4
				c-0.9-0.4-1.5-1.3-1.5-2.3c0.1-0.5,0.3-0.9,0.4-1.4c0.5-0.8,1.5-1.3,2.5-1.1l1.1,0.3c0.6,0.1,1.2-0.2,1.4-0.9
				c0.1-0.6-0.2-1.2-0.9-1.4l-1.1-0.3c-1-0.2-1.7-1.1-1.8-2c0.1-0.5,0.1-0.9,0.2-1.4C236.8,461.9,237.4,461.4,238.2,461.2z
				 M239.4,453.8c1.4,0,2.5,1.1,2.5,2.5s-1.1,2.5-2.5,2.5c-1.4,0-2.5-1.1-2.5-2.5S238,453.8,239.4,453.8z M141.2,458.8
				c-1.4,0-2.5-1.1-2.5-2.5s1.1-2.5,2.5-2.5c1.4,0,2.5,1.1,2.5,2.5S142.6,458.8,141.2,458.8z M202.8,491.4c-0.1,0-0.2,0.1-0.2,0.1
				c-0.3,0.1-0.7,0.2-1,0.3c-0.4,0.1-0.7,0.2-1.1,0.3c-0.1,0-0.2,0.1-0.3,0.1c-1.9,0.5-3.9,0.8-6,1c-1.1,0.1-2.1,0.1-3.2,0.1
				c-1.2,0-2.3-0.1-3.5-0.2c-15.6-1.4-28.4-12.5-32.4-27.2c-0.1-0.2-0.1-0.5-0.2-0.7c0-0.1,0-0.1,0-0.2c-0.7-2.8-1.1-5.8-1.1-8.9
				c0-20.5,16.6-37.2,37.2-37.2c20.5,0,37.2,16.6,37.2,37.2C228.1,472.5,217.5,486.4,202.8,491.4z"></path>

		<path id="cran8" fill="#9373B1" d="M327.7,371.9l-1.4-0.1c-1.2-0.1-2.2-0.9-2.5-2c0-0.2,0-0.4,0-0.6c0-0.3,0-0.6,0-1c0.2-1.2,1.2-2.1,2.4-2.2
			l1.4-0.1c0.8-0.1,1.3-0.8,1.2-1.5c-0.1-0.8-0.8-1.3-1.5-1.2l-1.4,0.1c-1.3,0.1-2.4-0.6-2.8-1.8c0-0.1,0-0.2-0.1-0.3
			c0-0.1,0-0.2-0.1-0.4c0-0.2-0.1-0.4-0.1-0.7c0-1.2,0.8-2.4,2.1-2.7l1.3-0.3c0.7-0.2,1.2-0.9,1-1.7c-0.2-0.7-0.9-1.2-1.7-1
			l-1.3,0.3c-1.3,0.3-2.6-0.3-3.1-1.4c-0.1-0.4-0.2-0.7-0.4-1.1c-0.2-1.3,0.4-2.6,1.6-3.1l1.3-0.5c0.7-0.3,1-1.1,0.7-1.8
			c-0.3-0.7-1.1-1-1.8-0.7l-1.3,0.5c-1.4,0.6-3-0.1-3.6-1.5l0,0c0-0.1-0.1-0.1-0.1-0.2l0.1,0.2c-0.8-1.3-0.4-3,0.9-3.8l1.2-0.7
			c0.6-0.4,0.9-1.2,0.5-1.9c-0.4-0.6-1.3-0.9-1.9-0.5l-1.2,0.7c-1.3,0.8-3,0.4-3.8-0.9l0,0c-1-1.2-0.8-2.9,0.3-3.9l1.1-0.9
			c0.6-0.5,0.7-1.4,0.2-1.9c-0.5-0.6-1.4-0.7-1.9-0.2l-1.1,0.9c-1.2,1-2.9,0.8-3.9-0.3l0,0c-1.1-1-1.3-2.8-0.2-3.9l0.9-1
			c0.5-0.6,0.4-1.4-0.1-1.9c-0.6-0.5-1.4-0.4-2,0.1l-0.9,1c-1,1.1-2.8,1.3-3.9,0.2l0,0c-1.3-0.8-1.6-2.5-0.8-3.8l0.8-1.2
			c0.4-0.6,0.2-1.5-0.4-1.9c-0.6-0.4-1.5-0.2-1.9,0.4l-0.8,1.2c-0.8,1.3-2.5,1.6-3.8,0.8l0,0c-1.4-0.6-2-2.3-1.4-3.7l0.6-1.3
			c0.3-0.7,0-1.5-0.7-1.8c-0.7-0.3-1.5,0-1.8,0.7l-0.6,1.3c-0.6,1.4-2.3,2-3.7,1.4l0,0c-1.5-0.4-2.3-1.9-1.9-3.4l0.4-1.3
			c0.2-0.7-0.2-1.5-1-1.7c-0.7-0.2-1.5,0.2-1.7,1l-0.4,1.3c-0.4,1.5-1.9,2.3-3.4,1.9l0,0c-1.5-0.2-2.6-1.6-2.4-3.1l0.2-1.4
			c0.1-0.8-0.4-1.4-1.2-1.5c-0.8-0.1-1.4,0.4-1.5,1.2l-0.2,1.4c-0.2,1.5-1.6,2.6-3.1,2.4l0,0c-1.5,0-2.8-1.2-2.8-2.7l0-1.4
			c0-0.8-0.7-1.4-1.4-1.3c-0.8,0-1.4,0.7-1.3,1.4l0,1.4c0,1.4-1,2.5-2.3,2.8l-0.7,0.1c-1.4,0.1-2.6-0.9-2.8-2.3l-0.2-1.4
			c-0.1-0.7-0.9-1.3-1.6-1.1c-0.7,0.1-1.3,0.9-1.1,1.6l0.2,1.4c0.3,1.5-0.7,2.9-2.2,3.2c0,0,0,0,0,0l0.1,0c-1.4,0.5-3-0.3-3.5-1.7
			l-0.4-1.3c-0.2-0.7-1-1.1-1.8-0.9c-0.7,0.2-1.1,1-0.9,1.7l0.4,1.3c0.5,1.4-0.3,3-1.7,3.5l0.4-0.1c-0.2,0.1-0.3,0.1-0.5,0.2
			l0.2-0.1c-1.4,0.7-3,0.2-3.7-1.2l-0.6-1.2c-0.3-0.7-1.2-0.9-1.9-0.6c-0.7,0.3-0.9,1.2-0.6,1.9l0.6,1.2c0.7,1.3,0.2,3-1.2,3.7l0,0
			c-1.2,0.9-3,0.6-3.9-0.6l-0.8-1.1c-0.4-0.6-1.3-0.8-1.9-0.3c-0.6,0.4-0.8,1.3-0.3,1.9l0.8,1.1c0.9,1.2,0.6,3-0.7,3.9l-0.1,0.1
			l0.2-0.2c-1.1,1.1-2.8,1-3.9-0.1l-1-1c-0.5-0.5-1.4-0.6-2,0c-0.5,0.5-0.6,1.4,0,2l1,1c1.1,1.1,1,2.8-0.1,3.9c0,0,0.3-0.2-0.1,0.2
			l0.1-0.2c-0.9,1.2-2.7,1.5-3.9,0.5l-1.1-0.8c-0.6-0.5-1.5-0.3-1.9,0.3c-0.5,0.6-0.3,1.5,0.3,1.9l1.1,0.8c1.2,0.9,1.5,2.7,0.5,3.9
			l0,0c-0.7,1.3-2.4,1.8-3.8,1.1l-1.2-0.7c-0.7-0.4-1.5-0.1-1.9,0.6c-0.4,0.7-0.1,1.5,0.6,1.9l1.2,0.7c0.9,0.5,1.4,1.4,1.4,2.4
			c0,0.2,0,0.3,0,0.5l0,0.1c0,0.1-0.1,0.3-0.1,0.4l0,0.1c0,0,0,0,0,0l0,0l-0.1,0.2c0,0.1-0.1,0.1-0.1,0.2l0-0.1
			c-0.5,1.4-2.1,2.2-3.5,1.6l-1.3-0.5c-0.7-0.3-1.5,0.1-1.8,0.8c-0.3,0.7,0.1,1.5,0.8,1.8l1.3,0.5c1.2,0.5,2,1.7,1.8,3
			c-0.1,0.4-0.2,0.7-0.3,1.1c-0.5,1.2-1.8,1.9-3.1,1.6l-1.4-0.3c-0.7-0.2-1.5,0.3-1.6,1.1c-0.2,0.7,0.3,1.5,1.1,1.6l1.4,0.3
			c1.3,0.3,2.1,1.3,2.2,2.6c-0.1,0.4-0.1,0.9-0.2,1.4c-0.4,1.2-1.5,2-2.8,1.9l-1.4-0.1c-0.8,0-1.4,0.6-1.5,1.3
			c0,0.8,0.6,1.4,1.3,1.4l1.4,0.1c1.2,0.1,2.2,0.9,2.5,2.1c0,0.4,0,0.7,0,1.1c0,0.2,0,0.3,0,0.5c-0.2,1.1-1.2,2.1-2.4,2.2l-1.4,0.1
			c-0.8,0.1-1.3,0.8-1.2,1.5c0.1,0.8,0.8,1.3,1.5,1.2l1.4-0.1c1.2-0.1,2.3,0.5,2.7,1.5c0,0.3,0.1,0.5,0.1,0.8
			c0.1,0.4,0.1,0.8,0.2,1.2c0,0,0,0,0,0c-0.2,1.1-0.9,2-2.1,2.3l-1.3,0.3c-0.7,0.2-1.2,0.9-1,1.7c0.2,0.7,0.9,1.2,1.7,1l1.3-0.3
			c1.1-0.3,2.2,0.1,2.9,1c0.2,0.7,0.4,1.4,0.7,2.1c0,1.1-0.7,2-1.7,2.5l-1.3,0.5c-0.7,0.3-1,1.1-0.7,1.8c0.3,0.7,1.1,1,1.8,0.7
			l1.3-0.5c1-0.4,2.1-0.2,2.9,0.5c0.3,0.7,0.7,1.4,1.1,2.1c0.1,1-0.4,2.1-1.3,2.6l-1.2,0.7c-0.6,0.4-0.9,1.2-0.5,1.9
			c0.4,0.6,1.3,0.9,1.9,0.5l1.2-0.7c0.9-0.6,2-0.5,2.9,0c0.5,0.7,0.9,1.4,1.4,2c0.2,1-0.1,2.1-0.9,2.7l-1.1,0.9
			c-0.6,0.5-0.7,1.4-0.2,1.9c0.5,0.6,1.4,0.7,1.9,0.2l1.1-0.9c0.8-0.7,1.9-0.8,2.8-0.4c0.6,0.6,1.2,1.2,1.8,1.9c0,0,0,0.1,0,0.1
			c0,0.1,0.1,0.2,0.1,0.3c0.2,0.8,0,1.7-0.6,2.4l-0.9,1c-0.5,0.6-0.4,1.4,0.1,1.9c0.6,0.5,1.4,0.4,2-0.1l0.9-1
			c0.7-0.8,1.7-1.1,2.7-0.9c0.7,0.6,1.4,1.1,2.1,1.6c0.4,0.9,0.4,1.9-0.1,2.8l-0.8,1.2c-0.4,0.6-0.2,1.5,0.4,1.9
			c0.6,0.4,1.5,0.2,1.9-0.4l0.8-1.2c0.5-0.8,1.5-1.3,2.4-1.2c0.8,0.5,1.6,0.9,2.5,1.4c0.5,0.8,0.7,1.8,0.2,2.7l-0.6,1.3
			c-0.3,0.7,0,1.5,0.7,1.8c0.7,0.3,1.5,0,1.8-0.7l0.6-1.3c0.4-0.9,1.2-1.5,2.1-1.6c0.9,0.4,1.8,0.7,2.8,1c0.6,0.7,0.9,1.6,0.6,2.6
			l-0.4,1.3c-0.2,0.7,0.2,1.5,1,1.7c0.7,0.2,1.5-0.2,1.7-1l0.4-1.3c0.3-0.9,1-1.6,1.9-1.9c1,0.2,1.9,0.4,2.9,0.6
			c0.7,0.6,1.1,1.5,1,2.5l-0.2,1.4c-0.1,0.8,0.4,1.4,1.2,1.5c0.8,0.1,1.4-0.4,1.5-1.2l0.2-1.4c0.1-1,0.7-1.8,1.6-2.1
			c1,0.1,2,0.1,3,0.1c0.8,0.5,1.3,1.3,1.3,2.3l0,1.4c0,0.8,0.7,1.4,1.4,1.3c0.8,0,1.4-0.7,1.3-1.4l0-1.4c0-1,0.5-1.8,1.2-2.4
			c1-0.1,2-0.2,3-0.3c0.8,0.4,1.5,1.1,1.7,2.1l0.2,1.4c0.1,0.7,0.9,1.3,1.6,1.1c0.7-0.1,1.3-0.9,1.1-1.6l-0.2-1.4
			c-0.2-1,0.2-1.9,0.9-2.5c1-0.2,1.9-0.5,2.9-0.7c0.9,0.2,1.6,0.9,2,1.8l0.4,1.3c0.2,0.7,1,1.1,1.8,0.9c0.7-0.2,1.1-1,0.9-1.7
			l-0.4-1.3c-0.3-0.9-0.1-1.9,0.5-2.6c0.9-0.4,1.8-0.7,2.7-1.1c0.9,0.1,1.8,0.6,2.2,1.5l0.6,1.2c0.3,0.7,1.2,0.9,1.9,0.6
			c0.7-0.3,0.9-1.2,0.6-1.9l-0.6-1.2c-0.5-0.9-0.4-1.9,0.1-2.7c0.8-0.5,1.6-1,2.4-1.5c0.9-0.1,1.9,0.3,2.5,1.1l0.8,1.1
			c0.4,0.6,1.3,0.8,1.9,0.3c0.6-0.4,0.8-1.3,0.3-1.9l-0.8-1.1c-0.6-0.8-0.7-1.9-0.3-2.8c0.7-0.6,1.4-1.1,2.1-1.7
			c0.9-0.3,2,0,2.7,0.7l1,1c0.5,0.5,1.4,0.6,2,0c0.5-0.5,0.6-1.4,0-2l-1-1c-0.7-0.8-0.9-1.8-0.6-2.8c0.6-0.6,1.2-1.3,1.7-1.9
			c0.9-0.4,2-0.4,2.8,0.3l1.1,0.8c0.6,0.5,1.5,0.3,1.9-0.3c0.5-0.6,0.3-1.5-0.3-1.9l-1.1-0.8c-0.9-0.6-1.2-1.7-1-2.7
			c0.5-0.7,0.9-1.4,1.3-2.1c0.8-0.6,1.9-0.7,2.9-0.2l1.2,0.7c0.7,0.4,1.5,0.1,1.9-0.6s0.1-1.5-0.6-1.9l-1.2-0.7
			c-1-0.5-1.5-1.5-1.4-2.6c0.3-0.7,0.7-1.4,1-2.2c0.7-0.7,1.9-1,2.9-0.6l1.3,0.5c0.7,0.3,1.5-0.1,1.8-0.8c0.3-0.7-0.1-1.5-0.8-1.8
			l-1.3-0.5c-1.1-0.4-1.7-1.3-1.8-2.4c0.2-0.7,0.4-1.4,0.6-2.1c0.6-0.9,1.7-1.4,2.8-1.1l1.4,0.3c0.7,0.2,1.5-0.3,1.6-1.1
			c0.2-0.7-0.3-1.5-1.1-1.6l-1.4-0.3c-1.1-0.2-2-1.1-2.2-2.2c0.1-0.6,0.2-1.3,0.2-1.9c0.4-1,1.5-1.7,2.7-1.7l1.4,0.1
			c0.8,0,1.4-0.6,1.5-1.3C329.1,372.6,328.5,371.9,327.7,371.9z M310.7,368.6c0.2,7.1-1.4,13.8-4.3,19.8c-4.9-2.1-8.8-4.9-11.4-8.4
			c-1-1.3-1.8-2.7-2.6-4.1c-1.8-3-3.6-6.2-7.5-8.3c-3.5-1.9-7.7-2.3-12.5-1.5c2.6-2.5,5.4-3.9,8.2-4.3c3.4-0.5,6.1,0.7,9.1,2
			c1.5,0.7,3.1,1.4,4.9,1.9c4.8,1.5,10.2,1.5,16,0.1C310.6,366.7,310.6,367.7,310.7,368.6z M288.5,407.1c-2.7-4.6-4.2-9.1-4.2-13.5
			c0-1.7,0.1-3.3,0.3-4.8c0.4-3.5,0.7-7.1-1.2-11.1c-1.7-3.6-4.9-6.4-9.3-8.6c3.6-0.5,6.6,0,9.2,1.3c3.1,1.6,4.5,4.1,6.2,7
			c0.8,1.4,1.7,2.9,2.8,4.4c3,3.9,7.2,7.1,12.5,9.4C300.9,397.9,295.2,403.4,288.5,407.1z M239.1,401.5c3.6-4.4,7.7-7.4,12.1-8.9
			c1.6-0.5,3.2-0.9,4.7-1.2c3.4-0.7,7-1.5,10.2-4.6c2.9-2.8,4.6-6.6,5.3-11.5c1.5,3.2,2.1,6.3,1.6,9.1c-0.6,3.4-2.5,5.6-4.8,8.1
			c-1.1,1.2-2.3,2.5-3.3,4c-2.9,4.1-4.6,9.2-5.1,15.1C251.9,410.3,244.8,406.6,239.1,401.5z M265.8,371.1c-0.1,0-0.2,0.1-0.4,0.1
			l-0.3,0.2c0,0-0.1-0.1-0.1-0.1c0.1,0,0.3-0.1,0.4-0.1l0.3-0.2c0-0.1,0-0.2,0-0.3c0-0.4,0.1-0.8,0.2-1.1c-0.1-0.1-0.3-0.1-0.4-0.2
			l-0.4,0c0-0.1,0-0.1,0-0.2c0.1,0.1,0.3,0.1,0.4,0.2l0.5,0c0.2-0.4,0.5-0.8,0.9-1.1c-0.1-0.1-0.2-0.2-0.2-0.4l0.4,0.3
			c0.4-0.2,0.8-0.4,1.3-0.4c0,0,0.1,0,0.1,0c0-0.1,0-0.2,0-0.4l0.1,0.4c0.5,0,1,0.2,1.5,0.5c0.1-0.1,0.1-0.1,0.2-0.2l0.1-0.4
			c0.1,0,0.1,0,0.2,0.1c-0.1,0.1-0.2,0.2-0.3,0.3l-0.1,0.3c0.4,0.3,0.8,0.8,0.9,1.4c0,0,0.1,0,0.2,0l0.3-0.2c0,0,0.1,0.1,0.1,0.1
			c-0.1,0-0.3,0.1-0.4,0.1l-0.1,0.1c0.1,0.2,0.1,0.5,0.1,0.7c0,0.4-0.1,0.7-0.2,1c0,0,0.1,0,0.1,0l0.4,0c0,0.1,0,0.1,0,0.2
			c-0.1-0.1-0.3-0.1-0.4-0.2l-0.1,0c-0.2,0.6-0.6,1-1.2,1.3c0,0,0,0.1,0.1,0.1l0.3,0.3c0,0-0.1,0.1-0.1,0.1
			c-0.1-0.1-0.1-0.3-0.2-0.4l-0.1-0.1c-0.4,0.2-0.8,0.4-1.3,0.4c-0.1,0-0.3,0-0.4,0c0,0,0,0-0.1,0c-0.6-0.1-1.1-0.3-1.5-0.7
			c-0.1,0.1-0.1,0.1-0.2,0.2l0.1-0.3C266.2,372.1,265.9,371.6,265.8,371.1z M224.8,370.6c-0.2-6.7,1.2-13.1,3.9-18.9
			c5.8,2.1,10.2,5.2,13.2,9.1c1,1.3,1.8,2.7,2.6,4.1c1.8,3,3.6,6.2,7.5,8.3c2.5,1.3,5.4,2,8.7,1.9c1.2,0,2.5-0.2,3.9-0.4
			c-2.6,2.4-5.3,3.9-8.2,4.3c-3.4,0.5-6.1-0.7-9.1-2c-1.5-0.7-3.1-1.4-4.9-1.9c-5.1-1.6-10.9-1.5-17.1,0.1
			C225,373.7,224.9,372.2,224.8,370.6z M247.2,331.9c3.5,5.2,5.2,10.2,5.3,15.2c0,1.7-0.1,3.3-0.3,4.8c-0.4,3.5-0.7,7.1,1.2,11.1
			c1.7,3.6,4.9,6.4,9.3,8.6c-3.6,0.5-6.6,0-9.2-1.3c-3.1-1.6-4.5-4.1-6.2-7c-0.8-1.4-1.7-2.9-2.8-4.4c-3.3-4.4-8.1-7.8-14.3-10.1
			C234.2,341.7,240.1,335.8,247.2,331.9z M263.1,368.1c-3.1-1.7-5.4-3.9-6.7-6.5c-1.5-3.1-1.2-6-0.9-9.3c0.2-1.7,0.3-3.4,0.3-5.2
			c-0.1-5.5-2-11.1-5.7-16.6c5.1-2.3,10.6-3.6,16.5-3.7c2.4-0.1,4.8,0.1,7.1,0.4c-0.3,6.1-1.8,11.1-4.6,15.1c-1,1.4-2,2.6-3.1,3.7
			c-2.4,2.6-4.8,5.4-5.5,9.7C259.9,359.6,260.8,363.8,263.1,368.1z M263.9,356.3c0.6-3.4,2.5-5.6,4.8-8.1c1.1-1.2,2.2-2.5,3.3-4
			c3.1-4.4,4.8-9.9,5.2-16.4c8,1.8,15.1,5.8,20.7,11.3c-3.7,4.5-7.8,7.5-12.2,9.1c-1.6,0.5-3.2,0.9-4.7,1.2c-3.4,0.7-7,1.5-10.2,4.6
			c-2.9,2.8-4.6,6.6-5.3,11.5C263.9,362.2,263.4,359.1,263.9,356.3z M267.5,398.5c1-1.4,2-2.6,3.1-3.7c2.4-2.6,4.8-5.3,5.5-9.7
			c0.7-3.9-0.2-8.1-2.5-12.4c3.1,1.7,5.4,3.9,6.7,6.5c1.5,3.1,1.2,6,0.9,9.3c-0.2,1.7-0.3,3.4-0.3,5.2c0.1,4.9,1.6,9.9,4.6,14.9
			c-5.1,2.3-10.8,3.7-16.7,3.8c-2,0-3.9,0-5.8-0.3C263.5,406.8,264.9,402.2,267.5,398.5z M310.1,362.5c-5.4,1.3-10.3,1.3-14.6,0
			c-1.6-0.5-3.1-1.1-4.5-1.8c-3.2-1.4-6.6-2.9-10.9-2.3c-3.9,0.6-7.6,2.6-11,6.1c0.7-3.5,2-6.3,4.1-8.3c2.5-2.4,5.3-3,8.6-3.7
			c1.6-0.4,3.3-0.7,5.1-1.3c4.9-1.7,9.4-5,13.5-9.8C305.2,347.3,308.8,354.6,310.1,362.5z M225.8,378.5c5.8-1.6,11-1.6,15.6-0.2
			c1.6,0.5,3.1,1.1,4.5,1.8c2.8,1.2,5.7,2.5,9.2,2.4c0.6,0,1.1-0.1,1.7-0.1c3.9-0.6,7.6-2.6,11-6.1c-0.7,3.5-2,6.3-4.1,8.3
			c-2.5,2.4-5.3,3-8.6,3.7c-1.6,0.4-3.3,0.7-5.1,1.3c-4.9,1.7-9.4,4.9-13.4,9.7C231.3,393.6,227.4,386.4,225.8,378.5z M239.8,323.1
			l0.3-0.1C240,323.1,239.9,323.1,239.8,323.1L239.8,323.1z">

		<animateTransform 
           xlink:href="#cran8"
           attributeName="transform" 
           attributeType="XML"
           type="rotate"
           from="0 269 370"
           to="360 269 370" 
           dur="20s"
           begin="0s"
           repeatCount="indefinite"                  
       />
   </path>

			<path id="cran9" fill="#57969D" d="M345.8,424.3l-1.3-0.6c-1-0.5-1.6-1.5-1.6-2.5c0.1-0.4,0.2-0.7,0.2-1.1c0-0.1,0-0.1,0.1-0.2l0,0.1
				c0-0.1,0-0.2,0-0.2c0-0.1,0-0.2,0-0.2l0,0.1c0-0.1,0-0.1,0-0.2c0-0.4,0.1-0.8,0.1-1.1c0.3-1,1.1-1.8,2.2-2l1.4-0.2
				c0.8-0.1,1.3-0.9,1.2-1.6c-0.1-0.8-0.9-1.3-1.6-1.2l-1.4,0.2c-1.1,0.2-2.2-0.3-2.8-1.2c-0.1-0.3-0.3-0.7-0.5-1c0-0.1,0-0.1,0-0.1
				l0,0.1c-0.1-0.2-0.2-0.3-0.2-0.4l0.1,0.1c0,0-0.1-0.1-0.1-0.1c-0.2-0.3-0.4-0.6-0.6-0.9c-0.4-1-0.2-2.1,0.6-3l1-1
				c0.5-0.6,0.5-1.5,0-2c-0.6-0.5-1.5-0.5-2,0l-1,1c-0.8,0.8-1.9,1-2.9,0.7c-0.3-0.2-0.6-0.4-1-0.5c0,0-0.1-0.1-0.1-0.1l0.1,0.1
				c-0.1-0.1-0.3-0.1-0.4-0.2l0.1,0c0,0-0.1,0-0.1,0c-0.4-0.2-0.7-0.3-1.1-0.5c-0.9-0.6-1.4-1.6-1.2-2.7l0.2-1.4
				c0.1-0.8-0.4-1.5-1.2-1.6c-0.8-0.1-1.5,0.4-1.6,1.2l-0.2,1.4c-0.2,1.1-0.9,2-1.9,2.3c-0.4,0-0.8,0.1-1.2,0.1c0,0-0.1,0-0.1,0
				l0.1,0c-0.2,0-0.3,0.1-0.4,0.1l0.1-0.1c-0.1,0-0.1,0-0.2,0.1c-0.4,0.1-0.7,0.2-1.1,0.3c-1,0-2.1-0.5-2.6-1.5l-0.7-1.3
				c-0.4-0.7-1.2-1-1.9-0.6c-0.7,0.4-1,1.2-0.6,1.9l0.7,1.3c0.5,1,0.4,2.2-0.2,3c-0.3,0.2-0.5,0.5-0.8,0.7c-0.1,0-0.1,0.1-0.2,0.1
				l0.1-0.1c-0.1,0.1-0.2,0.2-0.4,0.4l0-0.1c0,0-0.1,0.1-0.1,0.1c-0.3,0.3-0.5,0.6-0.7,0.8c-0.8,0.6-2,0.8-3,0.3l-1.3-0.6
				c-0.7-0.3-1.6-0.1-1.9,0.6c-0.3,0.7-0.1,1.6,0.6,1.9l1.3,0.6c1,0.5,1.6,1.5,1.6,2.5c-0.1,0.4-0.2,0.7-0.2,1.1
				c0,0.1,0,0.1-0.1,0.2l0-0.1c0,0.1,0,0.2,0,0.2c0,0.1,0,0.2,0,0.2l0-0.1c0,0.1,0,0.1,0,0.2c0,0.4-0.1,0.8-0.1,1.1
				c-0.3,1-1.1,1.8-2.2,2l-1.4,0.2c-0.8,0.1-1.3,0.9-1.2,1.6c0.1,0.8,0.9,1.3,1.6,1.2l1.4-0.2c1.1-0.2,2.2,0.3,2.8,1.2
				c0.1,0.3,0.3,0.7,0.5,1c0,0.1,0,0.1,0,0.1l0-0.1c0.1,0.2,0.2,0.3,0.2,0.4l-0.1-0.1c0,0,0.1,0.1,0.1,0.1c0.2,0.3,0.4,0.6,0.6,0.9
				c0.4,1,0.2,2.1-0.6,3l-1,1c-0.5,0.6-0.5,1.5,0,2c0.6,0.5,1.5,0.5,2,0l1-1c0.8-0.8,1.9-1,2.9-0.7c0.3,0.2,0.6,0.4,1,0.5
				c0,0,0.1,0.1,0.1,0.1l-0.1-0.1c0.1,0.1,0.3,0.1,0.4,0.2l-0.1,0c0,0,0.1,0,0.1,0c0.4,0.2,0.7,0.3,1.1,0.5c0.9,0.6,1.4,1.6,1.2,2.7
				l-0.2,1.4c-0.1,0.8,0.4,1.5,1.2,1.6s1.5-0.4,1.6-1.2l0.2-1.4c0.2-1.1,0.9-2,1.9-2.3c0.4,0,0.8-0.1,1.2-0.1c0,0,0.1,0,0.1,0
				l-0.1,0c0.2,0,0.3-0.1,0.4-0.1l-0.1,0.1c0.1,0,0.1,0,0.2-0.1c0.4-0.1,0.7-0.2,1.1-0.3c1,0,2.1,0.5,2.6,1.5l0.7,1.3
				c0.4,0.7,1.2,1,1.9,0.6c0.7-0.4,1-1.2,0.6-1.9l-0.7-1.3c-0.5-1-0.4-2.2,0.2-3c0.3-0.2,0.5-0.5,0.8-0.7c0.1,0,0.1-0.1,0.2-0.1
				l-0.1,0.1c0.1-0.1,0.2-0.2,0.4-0.4l0,0.1c0,0,0.1-0.1,0.1-0.1c0.3-0.3,0.5-0.6,0.7-0.8c0.8-0.6,2-0.8,3-0.3l1.3,0.6
				c0.7,0.3,1.6,0.1,1.9-0.6S346.5,424.6,345.8,424.3z M332,418.1c-0.2,1.5-1.7,2.6-3.2,2.4c-1.5-0.2-2.6-1.7-2.4-3.2
				c0.2-1.5,1.7-2.6,3.2-2.4C331.2,415.1,332.3,416.6,332,418.1z">
			<animateTransform 
           xlink:href="#cran9"
           attributeName="transform" 
           attributeType="XML"
           type="rotate"
           from="360 329 417.5"
           to="0 329 417.5" 
           dur="4.85s"
           begin="0s"
           repeatCount="indefinite"                  
       />
   </path>

	

			<path id="cran10" fill="#9A9590" d="M389.6,457.6c0-0.1,0-0.2,0-0.3c0-0.1,0-0.2,0-0.3c0.2-1.3,1.3-2.2,2.7-2.3l1.4-0.1
				c0.8,0,1.4-0.7,1.4-1.5c0-0.8-0.7-1.4-1.5-1.4l-1.4,0.1c-1.6,0.1-2.9-1.2-2.9-2.7l0,0.1c0-0.2-0.1-0.4-0.1-0.6l0,0.1
				c-0.5-1.5,0.2-3.1,1.7-3.6l1.3-0.5c0.7-0.3,1.1-1.1,0.8-1.8c-0.3-0.7-1.1-1.1-1.8-0.8l-1.3,0.5c-1.3,0.5-2.6,0-3.3-1.1
				c-0.1-0.1-0.1-0.2-0.1-0.3c0-0.1-0.1-0.2-0.1-0.3l0,0.1c-0.1-0.2-0.2-0.3-0.3-0.5l0.1,0.1c-0.1-0.1-0.1-0.2-0.2-0.2
				c-0.1-0.1-0.1-0.2-0.2-0.3c-0.5-1.2-0.2-2.6,0.8-3.4l1.1-0.9c0.6-0.5,0.7-1.4,0.2-2c-0.5-0.6-1.4-0.7-2-0.2l-1.1,0.9
				c-1.1,0.8-2.5,0.8-3.5-0.1c0,0-0.1-0.1-0.1-0.1c-0.1-0.1-0.2-0.2-0.3-0.3l0.1,0.1c-0.1-0.1-0.3-0.3-0.4-0.4l0.1,0.1
				c-0.1-0.1-0.3-0.2-0.4-0.3c0,0,0,0-0.1-0.1c-0.9-0.9-1.1-2.4-0.3-3.5l0.8-1.2c0.4-0.6,0.3-1.5-0.4-2c-0.6-0.4-1.5-0.3-2,0.4
				l-0.8,1.2c-0.8,1.1-2.2,1.5-3.4,1c0,0,0,0-0.1,0c-0.2-0.1-0.3-0.1-0.4-0.2l0.1,0.1c-0.2-0.1-0.4-0.2-0.5-0.2l0.1,0
				c-0.2,0-0.3-0.1-0.4-0.2c0,0-0.1,0-0.1-0.1c-1.1-0.6-1.8-2-1.4-3.3l0.4-1.4c0.2-0.7-0.2-1.5-1-1.7c-0.7-0.2-1.5,0.2-1.7,1
				l-0.4,1.4c-0.4,1.3-1.6,2.1-2.9,2c-0.1,0-0.2,0-0.3,0c-0.1,0-0.2,0-0.3,0l0.1,0c-0.2,0-0.4,0-0.6-0.1l0.1,0c-0.1,0-0.2,0-0.3,0
				c-0.1,0-0.2,0-0.3,0c-1.3-0.2-2.2-1.3-2.3-2.7l-0.1-1.4c0-0.8-0.7-1.4-1.5-1.4c-0.8,0-1.4,0.7-1.4,1.5l0.1,1.4
				c0.1,1.6-1.2,2.9-2.7,2.9l0.1,0c-0.2,0-0.4,0.1-0.6,0.1l0.1,0c-1.5,0.5-3.1-0.2-3.6-1.7l-0.5-1.3c-0.3-0.7-1.1-1.1-1.8-0.8
				c-0.7,0.3-1.1,1.1-0.8,1.8l0.5,1.3c0.5,1.3,0,2.6-1.1,3.3c-0.1,0.1-0.2,0.1-0.3,0.1c-0.1,0-0.2,0.1-0.3,0.1l0.1,0
				c-0.2,0.1-0.3,0.2-0.5,0.3l0.1-0.1c-0.1,0.1-0.2,0.1-0.2,0.2c-0.1,0.1-0.2,0.1-0.3,0.2c-1.2,0.5-2.6,0.2-3.4-0.8l-0.9-1.1
				c-0.5-0.6-1.4-0.7-2-0.2c-0.6,0.5-0.7,1.4-0.2,2l0.9,1.1c0.8,1.1,0.8,2.5-0.1,3.5c0,0-0.1,0.1-0.1,0.1c-0.1,0.1-0.2,0.2-0.3,0.3
				l0.1-0.1c-0.1,0.1-0.3,0.3-0.4,0.4l0.1-0.1c-0.1,0.1-0.2,0.3-0.3,0.4c0,0,0,0-0.1,0.1c-0.9,0.9-2.4,1.1-3.5,0.3l-1.2-0.8
				c-0.6-0.4-1.5-0.3-2,0.4s-0.3,1.5,0.4,2l1.2,0.8c1.1,0.8,1.5,2.2,1,3.4c0,0,0,0,0,0.1c-0.1,0.2-0.1,0.3-0.2,0.4l0.1-0.1
				c-0.1,0.2-0.2,0.4-0.2,0.5l0-0.1c0,0.2-0.1,0.3-0.2,0.4c0,0,0,0.1-0.1,0.1c-0.6,1.1-2,1.8-3.3,1.4l-1.4-0.4
				c-0.7-0.2-1.5,0.2-1.7,1c-0.2,0.7,0.2,1.5,1,1.7l1.4,0.4c1.3,0.4,2.1,1.6,2,2.9c0,0.1,0,0.2,0,0.3c0,0.1,0,0.2,0,0.3l0-0.1
				c0,0.2,0,0.4-0.1,0.6l0-0.1c0,0.1,0,0.2,0,0.3c0,0.1,0,0.2,0,0.3c-0.2,1.3-1.3,2.2-2.7,2.3l-1.4,0.1c-0.8,0-1.4,0.7-1.4,1.5
				c0,0.8,0.7,1.4,1.5,1.4l1.4-0.1c1.6-0.1,2.9,1.2,2.9,2.7l0-0.1c0,0.2,0.1,0.4,0.1,0.6l0-0.1c0.5,1.5-0.2,3.1-1.7,3.6l-1.3,0.5
				c-0.7,0.3-1.1,1.1-0.8,1.8c0.3,0.7,1.1,1.1,1.8,0.8l1.3-0.5c1.3-0.5,2.6,0,3.3,1.1c0.1,0.1,0.1,0.2,0.1,0.3
				c0,0.1,0.1,0.2,0.1,0.3l0-0.1c0.1,0.2,0.2,0.3,0.3,0.5l-0.1-0.1c0.1,0.1,0.1,0.2,0.2,0.2c0.1,0.1,0.1,0.2,0.2,0.3
				c0.5,1.2,0.2,2.6-0.8,3.4l-1.1,0.9c-0.6,0.5-0.7,1.4-0.2,2c0.5,0.6,1.4,0.7,2,0.2l1.1-0.9c1.1-0.8,2.5-0.8,3.5,0.1
				c0,0,0.1,0.1,0.1,0.1c0.1,0.1,0.2,0.2,0.3,0.3l-0.1-0.1c0.1,0.1,0.3,0.3,0.4,0.4l-0.1-0.1c0.1,0.1,0.3,0.2,0.4,0.3
				c0,0,0,0,0.1,0.1c0.9,0.9,1.1,2.4,0.3,3.5l-0.8,1.2c-0.4,0.6-0.3,1.5,0.4,2c0.6,0.4,1.5,0.3,2-0.4l0.8-1.2c0.8-1.1,2.2-1.5,3.4-1
				c0,0,0,0,0.1,0c0.2,0.1,0.3,0.1,0.4,0.2l-0.1-0.1c0.2,0.1,0.4,0.2,0.5,0.2l-0.1,0c0.1,0,0.3,0.1,0.4,0.2c0,0,0.1,0,0.1,0.1
				c1.1,0.6,1.8,2,1.4,3.3l-0.4,1.4c-0.2,0.7,0.2,1.5,1,1.7c0.7,0.2,1.5-0.2,1.7-1l0.4-1.4c0.4-1.3,1.6-2.1,2.9-2c0.1,0,0.2,0,0.3,0
				c0.1,0,0.2,0,0.3,0l-0.1,0c0.2,0,0.4,0,0.6,0.1l-0.1,0c0.1,0,0.2,0,0.3,0c0.1,0,0.2,0,0.3,0c1.3,0.2,2.2,1.3,2.3,2.7l0.1,1.4
				c0,0.8,0.7,1.4,1.5,1.4c0.8,0,1.4-0.7,1.4-1.5l-0.1-1.4c-0.1-1.6,1.2-2.9,2.7-2.9l-0.1,0c0.2,0,0.4-0.1,0.6-0.1l-0.1,0
				c1.5-0.5,3.1,0.2,3.6,1.7l0.5,1.3c0.3,0.7,1.1,1.1,1.8,0.8c0.7-0.3,1.1-1.1,0.8-1.8l-0.5-1.3c-0.5-1.3,0-2.6,1.1-3.3
				c0.1-0.1,0.2-0.1,0.3-0.1c0.1,0,0.2-0.1,0.3-0.1l-0.1,0c0.2-0.1,0.3-0.2,0.5-0.3l-0.1,0.1c0.1-0.1,0.2-0.1,0.2-0.2
				c0.1-0.1,0.2-0.1,0.3-0.2c1.2-0.5,2.6-0.2,3.4,0.8l0.9,1.1c0.5,0.6,1.4,0.7,2,0.2c0.6-0.5,0.7-1.4,0.2-2l-0.9-1.1
				c-0.8-1.1-0.8-2.5,0.1-3.5c0,0,0.1-0.1,0.1-0.1c0.1-0.1,0.2-0.2,0.3-0.3l-0.1,0.1c0.1-0.1,0.3-0.3,0.4-0.4l-0.1,0.1
				c0.1-0.1,0.2-0.3,0.3-0.4c0,0,0,0,0.1-0.1c0.9-0.9,2.4-1.1,3.5-0.3l1.2,0.8c0.6,0.4,1.5,0.3,2-0.4c0.4-0.6,0.3-1.5-0.4-2
				l-1.2-0.8c-1.1-0.8-1.5-2.2-1-3.4c0,0,0,0,0-0.1c0.1-0.2,0.1-0.3,0.2-0.4l-0.1,0.1c0.1-0.2,0.2-0.4,0.2-0.5l0,0.1
				c0-0.2,0.1-0.3,0.2-0.4c0,0,0-0.1,0.1-0.1c0.6-1.1,2-1.8,3.3-1.4l1.4,0.4c0.7,0.2,1.5-0.2,1.7-1c0.2-0.7-0.2-1.5-1-1.7l-1.4-0.4
				c-1.3-0.4-2.1-1.6-2-2.9c0-0.1,0-0.2,0-0.3c0-0.1,0-0.2,0-0.3l0,0.1c0-0.2,0-0.4,0.1-0.6L389.6,457.6z M371.8,434.3l-9.8,14.5
				c-1-0.1-2,0.1-2.9,0.6l-14.5-9.8C351.4,431.9,362.6,429.7,371.8,434.3z M364,456c-0.9,1.3-2.6,1.6-3.9,0.8
				c-1.3-0.9-1.6-2.6-0.8-3.9c0.9-1.3,2.6-1.6,3.9-0.8C364.5,453,364.8,454.7,364,456z M346.8,471.4c-7.8-6.7-10-18-5.3-27.1
				l14.5,9.8c-0.1,1,0.1,2,0.6,2.9L346.8,471.4z M351.5,474.6l9.8-14.5c1,0.1,2-0.1,2.9-0.6l14.5,9.8
				C371.9,477,360.7,479.2,351.5,474.6z M381.8,464.6l-14.5-9.8c0.1-1-0.1-2-0.6-2.9l9.8-14.5C384.2,444.2,386.4,455.4,381.8,464.6z
				">
			<animateTransform 
           xlink:href="#cran10"
           attributeName="transform" 
           attributeType="XML"
           type="rotate"
           from="0 362 454"
           to="360 362 454" 
           dur="9.60s"
           begin="0s"
           repeatCount="indefinite"                  
       />
   </path>

<path id="cran11" fill="#BB7C4B" d="M498.7,403.2l-1.4-0.1c-1.3-0.1-2.3-1-2.5-2.2c0-0.3,0-0.6,0-0.8c0,0,0,0,0,0c0-0.3,0-0.5,0-0.8
	c0.3-1.2,1.3-2.1,2.5-2.2l1.4-0.1c0.8-0.1,1.4-0.7,1.3-1.5c-0.1-0.8-0.7-1.4-1.5-1.3l-1.4,0.1c-1.3,0.1-2.4-0.7-2.8-1.8
	c0-0.3-0.1-0.5-0.1-0.8c0-0.3-0.1-0.6-0.1-0.8c0.1-1.2,0.9-2.3,2.2-2.5l1.4-0.3c0.8-0.2,1.2-0.9,1.1-1.7s-0.9-1.2-1.7-1.1l-1.4,0.3
	c-1.2,0.3-2.4-0.3-3.1-1.3c-0.1-0.3-0.1-0.5-0.2-0.8c-0.1-0.3-0.2-0.6-0.3-0.8c-0.1-1.2,0.6-2.4,1.8-2.8l1.3-0.5
	c0.7-0.3,1.1-1.1,0.8-1.8c-0.3-0.7-1.1-1.1-1.8-0.8l-1.3,0.5c-1.2,0.5-2.4,0.1-3.2-0.8c-0.1-0.3-0.2-0.5-0.3-0.8
	c-0.1-0.3-0.3-0.5-0.4-0.8c-0.3-1.2,0.2-2.4,1.3-3l1.2-0.7c0.7-0.4,0.9-1.3,0.5-1.9c-0.4-0.7-1.3-0.9-1.9-0.5l-1.2,0.7
	c-1.1,0.6-2.4,0.4-3.3-0.4c-0.2-0.2-0.3-0.5-0.4-0.7c-0.2-0.2-0.3-0.4-0.5-0.7c-0.4-1.1-0.1-2.5,0.9-3.3l1.1-0.9
	c0.6-0.5,0.7-1.4,0.2-2c-0.5-0.6-1.4-0.7-2-0.2l-1.1,0.9c-1,0.8-2.4,0.8-3.4,0.1c-0.2-0.2-0.3-0.4-0.5-0.6c-0.2-0.2-0.4-0.4-0.6-0.6
	c-0.6-1.1-0.5-2.4,0.3-3.4l1-1c0.5-0.6,0.5-1.5-0.1-2c-0.6-0.5-1.5-0.5-2,0.1l-1,1c-0.9,0.9-2.2,1.1-3.3,0.6
	c-0.2-0.2-0.4-0.3-0.6-0.5c-0.2-0.2-0.4-0.3-0.6-0.5c-0.8-0.9-0.9-2.3-0.2-3.4l0.8-1.2c0.4-0.6,0.3-1.5-0.4-2
	c-0.6-0.4-1.5-0.3-2,0.4l-0.8,1.2c-0.7,1.1-2,1.5-3.2,1.1c-0.2-0.1-0.4-0.3-0.7-0.4c-0.2-0.1-0.5-0.3-0.7-0.4
	c-0.9-0.8-1.2-2.2-0.7-3.3l0.6-1.3c0.3-0.7,0-1.6-0.7-1.9c-0.7-0.3-1.6,0-1.9,0.7l-0.6,1.3c-0.6,1.1-1.8,1.7-3,1.6
	c-0.3-0.1-0.5-0.2-0.8-0.3c-0.2-0.1-0.5-0.2-0.8-0.3c-1-0.7-1.5-1.9-1.1-3.2l0.4-1.4c0.2-0.7-0.2-1.5-0.9-1.8
	c-0.7-0.2-1.5,0.2-1.8,0.9l-0.4,1.4c-0.4,1.2-1.5,2-2.7,2c-0.3-0.1-0.5-0.1-0.8-0.2c-0.3-0.1-0.5-0.1-0.8-0.2
	c-1.1-0.5-1.8-1.7-1.6-3l0.2-1.4c0.1-0.8-0.4-1.5-1.2-1.6c-0.8-0.1-1.5,0.4-1.6,1.2l-0.2,1.4c-0.2,1.3-1.2,2.2-2.4,2.4
	c-0.3,0-0.5-0.1-0.8-0.1c-0.2,0-0.5,0-0.7,0c-1.2-0.3-2.1-1.4-2.1-2.7v-1.4c0-0.8-0.6-1.4-1.4-1.4c-0.8,0-1.4,0.6-1.4,1.4v1.4
	c0,1.3-0.9,2.4-2.1,2.7c-0.3,0-0.5,0-0.8,0c-0.2,0-0.5,0.1-0.7,0.1c-1.2-0.2-2.3-1.1-2.4-2.4l-0.2-1.4c-0.1-0.8-0.8-1.3-1.6-1.2
	c-0.8,0.1-1.3,0.8-1.2,1.6l0.2,1.4c0.2,1.3-0.5,2.4-1.6,3c-0.3,0.1-0.6,0.1-0.8,0.2c-0.2,0.1-0.5,0.1-0.7,0.2c-1.2,0-2.4-0.8-2.7-2
	l-0.4-1.4c-0.2-0.7-1-1.2-1.8-0.9c-0.7,0.2-1.2,1-0.9,1.8l0.4,1.4c0.4,1.2-0.1,2.5-1.1,3.2c-0.3,0.1-0.6,0.2-0.8,0.3
	c-0.2,0.1-0.5,0.2-0.7,0.3c-1.2,0.2-2.4-0.4-3-1.6l-0.6-1.3c-0.3-0.7-1.2-1-1.9-0.7s-1,1.2-0.7,1.9l0.6,1.3c0.6,1.2,0.3,2.5-0.6,3.3
	c-0.3,0.1-0.5,0.3-0.8,0.4c-0.2,0.1-0.4,0.3-0.6,0.4c-1.2,0.4-2.5,0-3.2-1.1l-0.8-1.2c-0.4-0.6-1.3-0.8-2-0.4
	c-0.6,0.4-0.8,1.3-0.4,2l0.8,1.2c0.7,1.1,0.6,2.4-0.2,3.4c-0.2,0.2-0.5,0.3-0.7,0.5c-0.2,0.1-0.4,0.3-0.5,0.4
	c-1.1,0.6-2.5,0.4-3.4-0.6l-1-1c-0.5-0.6-1.4-0.6-2-0.1c-0.6,0.5-0.6,1.4-0.1,2l1,1c0.9,0.9,1,2.3,0.3,3.4c-0.2,0.2-0.4,0.4-0.6,0.6
	c-0.2,0.2-0.3,0.3-0.5,0.5c-1,0.7-2.4,0.7-3.4-0.1l-1.1-0.9c-0.6-0.5-1.5-0.4-2,0.2c-0.5,0.6-0.4,1.5,0.2,2l1.1,0.9
	c1,0.8,1.3,2.1,0.9,3.2c-0.2,0.2-0.4,0.5-0.5,0.7c-0.1,0.2-0.3,0.4-0.4,0.6c-0.9,0.8-2.2,1-3.3,0.4l-1.2-0.7
	c-0.7-0.4-1.5-0.2-1.9,0.5c-0.4,0.7-0.2,1.5,0.5,1.9l1.2,0.7c1.1,0.6,1.6,1.9,1.3,3c-0.1,0.3-0.3,0.6-0.4,0.9
	c-0.1,0.2-0.2,0.5-0.3,0.7c-0.8,0.9-2,1.3-3.2,0.8l-1.3-0.5c-0.7-0.3-1.6,0.1-1.8,0.8c-0.3,0.7,0.1,1.5,0.8,1.8l1.3,0.5
	c1.2,0.5,1.8,1.6,1.8,2.8c-0.1,0.3-0.2,0.6-0.3,0.9c-0.1,0.2-0.1,0.5-0.2,0.7c-0.6,1-1.8,1.6-3.1,1.3l-1.4-0.3
	c-0.8-0.2-1.5,0.3-1.7,1.1c-0.2,0.8,0.3,1.5,1.1,1.7l1.4,0.3c1.2,0.3,2.1,1.3,2.2,2.5c-0.1,0.3-0.1,0.6-0.2,0.9
	c0,0.2-0.1,0.5-0.1,0.7c-0.4,1.1-1.6,1.9-2.8,1.8l-1.4-0.1c-0.8-0.1-1.5,0.5-1.5,1.3c-0.1,0.8,0.5,1.5,1.3,1.5l1.4,0.1
	c1.3,0.1,2.3,1,2.5,2.2c0,0.3,0,0.6,0,0.9c0,0,0,0,0,0c0,0.2,0,0.5,0,0.7c-0.3,1.2-1.3,2.1-2.5,2.2l-1.4,0.1
	c-0.8,0.1-1.4,0.7-1.3,1.5c0.1,0.8,0.7,1.4,1.5,1.3l1.4-0.1c1.3-0.1,2.4,0.7,2.8,1.8c0.1,0.6,0.2,1.1,0.2,1.7
	c-0.1,1.2-1,2.2-2.2,2.5l-1.4,0.3c-0.8,0.2-1.2,0.9-1.1,1.7c0.2,0.8,0.9,1.2,1.7,1.1l1.4-0.3c1.2-0.3,2.4,0.3,3,1.3
	c0.2,0.6,0.3,1.1,0.5,1.7c0.1,1.2-0.6,2.3-1.8,2.8l-1.3,0.5c-0.7,0.3-1.1,1.1-0.8,1.8c0.3,0.7,1.1,1.1,1.8,0.8l1.3-0.5
	c1.2-0.5,2.4-0.1,3.2,0.8c0.2,0.5,0.5,1,0.8,1.6c0.2,1.2-0.3,2.4-1.3,3l-1.2,0.7c-0.7,0.4-0.9,1.3-0.5,1.9c0.4,0.7,1.3,0.9,1.9,0.5
	l1.2-0.7c1.1-0.6,2.4-0.4,3.3,0.4c0.3,0.5,0.6,0.9,1,1.4c0.4,1.1,0.1,2.4-0.9,3.2l-1.1,0.9c-0.6,0.5-0.7,1.4-0.2,2
	c0.5,0.6,1.4,0.7,2,0.2l1.1-0.9c1-0.8,2.3-0.8,3.3-0.1c0.4,0.4,0.8,0.8,1.1,1.2c0.6,1,0.5,2.4-0.4,3.3l-1,1c-0.5,0.6-0.5,1.5,0.1,2
	c0.6,0.5,1.5,0.5,2-0.1l1-1c0.8-0.9,2.2-1.1,3.2-0.6c0.4,0.4,0.9,0.7,1.3,1.1c0.8,0.9,0.9,2.3,0.1,3.4l-0.8,1.2
	c-0.4,0.6-0.3,1.5,0.4,2c0.6,0.4,1.5,0.3,2-0.4l0.8-1.2c0.7-1,2-1.4,3.1-1.1c0.5,0.3,1,0.6,1.5,0.9c0.9,0.8,1.2,2.1,0.6,3.3
	l-0.6,1.3c-0.3,0.7,0,1.6,0.7,1.9c0.7,0.3,1.6,0,1.9-0.7l0.6-1.3c0.5-1.1,1.7-1.7,2.9-1.6c0.6,0.2,1.1,0.4,1.7,0.7
	c1,0.7,1.4,1.9,1.1,3.1l-0.4,1.4c-0.2,0.7,0.2,1.5,0.9,1.8c0.7,0.2,1.5-0.2,1.8-0.9l0.4-1.4c0.4-1.2,1.5-1.9,2.6-2
	c0.6,0.1,1.2,0.3,1.7,0.4c1.1,0.5,1.7,1.7,1.5,2.9l-0.2,1.4c-0.1,0.8,0.4,1.5,1.2,1.6c0.8,0.1,1.5-0.4,1.6-1.2l0.2-1.4
	c0.2-1.2,1.2-2.2,2.3-2.4c0.6,0.1,1.1,0.1,1.7,0.1c1.2,0.4,2,1.4,2,2.7v1.4c0,0.8,0.6,1.4,1.4,1.4c0.8,0,1.4-0.6,1.4-1.4v-1.4
	c0-1.3,0.8-2.3,2-2.7c0.6,0,1.1-0.1,1.7-0.1c1.2,0.2,2.2,1.1,2.4,2.4l0.2,1.4c0.1,0.8,0.8,1.3,1.6,1.2c0.8-0.1,1.3-0.8,1.2-1.6
	l-0.2-1.4c-0.2-1.2,0.5-2.4,1.5-2.9c0.6-0.1,1.2-0.3,1.7-0.4c1.2,0,2.3,0.8,2.7,2l0.4,1.4c0.2,0.7,1,1.2,1.8,0.9
	c0.7-0.2,1.2-1,0.9-1.8l-0.4-1.4c-0.4-1.2,0.1-2.4,1-3.1c0.6-0.2,1.1-0.4,1.7-0.7c1.2-0.1,2.4,0.4,2.9,1.6l0.6,1.3
	c0.3,0.7,1.2,1,1.9,0.7c0.7-0.3,1-1.2,0.7-1.9l-0.6-1.3c-0.5-1.1-0.3-2.4,0.6-3.2c0.5-0.3,1-0.6,1.5-0.9c1.1-0.3,2.4,0.1,3.1,1.1
	l0.8,1.2c0.4,0.6,1.3,0.8,2,0.4c0.6-0.4,0.8-1.3,0.4-2l-0.8-1.2c-0.7-1-0.6-2.4,0.1-3.3c0.5-0.3,0.9-0.7,1.3-1.1
	c1.1-0.5,2.4-0.3,3.3,0.6l1,1c0.5,0.6,1.4,0.6,2,0.1c0.6-0.5,0.6-1.4,0.1-2l-1-1c-0.9-0.9-1-2.3-0.4-3.3c0.4-0.4,0.8-0.8,1.1-1.2
	c1-0.7,2.3-0.7,3.3,0.1l1.1,0.9c0.6,0.5,1.5,0.4,2-0.2c0.5-0.6,0.4-1.5-0.2-2l-1.1-0.9c-1-0.8-1.3-2.1-0.9-3.2
	c0.3-0.5,0.6-0.9,1-1.4c0.9-0.8,2.2-1,3.3-0.4l1.2,0.7c0.7,0.4,1.5,0.2,1.9-0.5c0.4-0.7,0.2-1.5-0.5-1.9l-1.2-0.7
	c-1.1-0.6-1.6-1.9-1.3-3c0.3-0.5,0.5-1,0.8-1.6c0.8-0.9,2-1.3,3.2-0.8l1.3,0.5c0.7,0.3,1.6-0.1,1.8-0.8c0.3-0.7-0.1-1.5-0.8-1.8
	l-1.3-0.5c-1.2-0.5-1.8-1.6-1.8-2.8c0.2-0.6,0.4-1.1,0.5-1.7c0.6-1,1.8-1.6,3.1-1.3l1.4,0.3c0.8,0.2,1.5-0.3,1.7-1.1
	c0.2-0.8-0.3-1.5-1.1-1.7l-1.4-0.3c-1.2-0.3-2.1-1.3-2.2-2.5c0.1-0.6,0.2-1.1,0.2-1.7c0.4-1.1,1.6-1.9,2.8-1.8l1.4,0.1
	c0.8,0.1,1.5-0.5,1.5-1.3C500.1,403.9,499.5,403.2,498.7,403.2z M438,354.8c15.3,0,28.9,7.6,37.1,19.2c-8.5,8.1-19.7,13.5-32.4,14.6
	c-16,1.4-31-4.3-41.8-14.6C409.2,362.4,422.7,354.8,438,354.8z M433.9,445.2c-23.2-2.1-41.3-21.5-41.3-45.1c0-6.8,1.5-13.2,4.2-19
	c12.8,3.8,24.2,12.2,31.4,24.7C435.4,418.2,437.1,432.2,433.9,445.2z M438,405.7c-3.1,0-5.7-2.5-5.7-5.7c0,0,0,0,0,0c0,0,0,0,0,0
	c0-3.1,2.5-5.7,5.7-5.7c3.1,0,5.7,2.5,5.7,5.7c0,0,0,0,0,0c0,0,0,0,0,0C443.7,403.2,441.2,405.7,438,405.7z M442.2,445.2
	c-3.1-12.9-1.5-27,5.7-39.4c7.2-12.4,18.6-20.9,31.4-24.7c2.7,5.8,4.2,12.2,4.2,19C483.4,423.7,465.3,443.1,442.2,445.2z">
<animateTransform 
           xlink:href="#cran11"
           attributeName="transform" 
           attributeType="XML"
           type="rotate"
           from="360 438.09 400.08"
           to="0 438.09 400.08" 
           dur="20s"
           begin="0s"
           repeatCount="indefinite"                  
       />
       </path>

		<path id="cran12" fill="#9A9590" d="M265,273.3l-1.4-0.1c-1.3-0.1-2.3-1-2.5-2.2c0-0.3,0-0.6,0-0.8c0,0,0,0,0,0c0-0.3,0-0.5,0-0.8
			c0.3-1.2,1.3-2.1,2.5-2.2l1.4-0.1c0.8-0.1,1.4-0.7,1.3-1.5c-0.1-0.8-0.7-1.4-1.5-1.3l-1.4,0.1c-1.3,0.1-2.4-0.7-2.8-1.8
			c0-0.3-0.1-0.5-0.1-0.8c0-0.3-0.1-0.6-0.1-0.8c0.1-1.2,0.9-2.3,2.2-2.5l1.4-0.3c0.8-0.2,1.2-0.9,1.1-1.7c-0.2-0.8-0.9-1.2-1.7-1.1
			l-1.4,0.3c-1.2,0.3-2.4-0.3-3.1-1.3c-0.1-0.3-0.1-0.5-0.2-0.8c-0.1-0.3-0.2-0.6-0.3-0.8c-0.1-1.2,0.6-2.4,1.8-2.8l1.3-0.5
			c0.7-0.3,1.1-1.1,0.8-1.8c-0.3-0.7-1.1-1.1-1.8-0.8l-1.3,0.5c-1.2,0.5-2.4,0.1-3.2-0.8c-0.1-0.3-0.2-0.5-0.3-0.8
			c-0.1-0.3-0.3-0.5-0.4-0.8c-0.3-1.2,0.2-2.4,1.3-3l1.2-0.7c0.7-0.4,0.9-1.3,0.5-1.9c-0.4-0.7-1.3-0.9-1.9-0.5l-1.2,0.7
			c-1.1,0.6-2.4,0.4-3.3-0.4c-0.2-0.2-0.3-0.5-0.4-0.7c-0.2-0.2-0.3-0.4-0.5-0.7c-0.4-1.1-0.1-2.5,0.9-3.3l1.1-0.9
			c0.6-0.5,0.7-1.4,0.2-2c-0.5-0.6-1.4-0.7-2-0.2l-1.1,0.9c-1,0.8-2.4,0.8-3.4,0.1c-0.2-0.2-0.3-0.4-0.5-0.6
			c-0.2-0.2-0.4-0.4-0.6-0.6c-0.6-1.1-0.5-2.4,0.3-3.4l1-1c0.5-0.6,0.5-1.5-0.1-2c-0.6-0.5-1.5-0.5-2,0.1l-1,1
			c-0.9,0.9-2.2,1.1-3.3,0.6c-0.2-0.2-0.4-0.3-0.6-0.5c-0.2-0.2-0.4-0.3-0.6-0.5c-0.8-0.9-0.9-2.3-0.2-3.4l0.8-1.2
			c0.4-0.6,0.3-1.5-0.4-2c-0.6-0.4-1.5-0.3-2,0.4l-0.8,1.2c-0.7,1.1-2,1.5-3.2,1.1c-0.2-0.1-0.4-0.3-0.7-0.4
			c-0.2-0.1-0.5-0.3-0.7-0.4c-0.9-0.8-1.2-2.2-0.7-3.3l0.6-1.3c0.3-0.7,0-1.6-0.7-1.9c-0.7-0.3-1.6,0-1.9,0.7l-0.6,1.3
			c-0.6,1.1-1.8,1.7-3,1.6c-0.3-0.1-0.5-0.2-0.8-0.3c-0.2-0.1-0.5-0.2-0.8-0.3c-1-0.7-1.5-1.9-1.1-3.2l0.4-1.4
			c0.2-0.7-0.2-1.5-0.9-1.8c-0.7-0.2-1.5,0.2-1.8,0.9l-0.4,1.4c-0.4,1.2-1.5,2-2.7,2c-0.3-0.1-0.5-0.1-0.8-0.2
			c-0.3-0.1-0.5-0.1-0.8-0.2c-1.1-0.5-1.8-1.7-1.6-3l0.2-1.4c0.1-0.8-0.4-1.5-1.2-1.6c-0.8-0.1-1.5,0.4-1.6,1.2l-0.2,1.4
			c-0.2,1.3-1.2,2.2-2.4,2.4c-0.3,0-0.5-0.1-0.8-0.1c-0.2,0-0.5,0-0.7,0c-1.2-0.3-2.1-1.4-2.1-2.7v-1.4c0-0.8-0.6-1.4-1.4-1.4
			c-0.8,0-1.4,0.6-1.4,1.4v1.4c0,1.3-0.9,2.4-2.1,2.7c-0.3,0-0.5,0-0.8,0c-0.2,0-0.5,0.1-0.7,0.1c-1.2-0.2-2.3-1.1-2.4-2.4l-0.2-1.4
			c-0.1-0.8-0.8-1.3-1.6-1.2c-0.8,0.1-1.3,0.8-1.2,1.6l0.2,1.4c0.2,1.3-0.5,2.4-1.6,3c-0.3,0.1-0.6,0.1-0.8,0.2
			c-0.2,0.1-0.5,0.1-0.7,0.2c-1.2,0-2.4-0.8-2.7-2l-0.4-1.4c-0.2-0.7-1-1.2-1.8-0.9c-0.7,0.2-1.2,1-0.9,1.8l0.4,1.4
			c0.4,1.2-0.1,2.5-1.1,3.2c-0.3,0.1-0.6,0.2-0.8,0.3c-0.2,0.1-0.5,0.2-0.7,0.3c-1.2,0.2-2.4-0.4-3-1.6l-0.6-1.3
			c-0.3-0.7-1.2-1-1.9-0.7c-0.7,0.3-1,1.2-0.7,1.9l0.6,1.3c0.6,1.2,0.3,2.5-0.6,3.3c-0.3,0.1-0.5,0.3-0.8,0.4
			c-0.2,0.1-0.4,0.3-0.6,0.4c-1.2,0.4-2.5,0-3.2-1.1l-0.8-1.2c-0.4-0.6-1.3-0.8-2-0.4s-0.8,1.3-0.4,2l0.8,1.2
			c0.7,1.1,0.6,2.4-0.2,3.4c-0.2,0.2-0.5,0.3-0.7,0.5c-0.2,0.1-0.4,0.3-0.5,0.4c-1.1,0.6-2.5,0.4-3.4-0.6l-1-1
			c-0.5-0.6-1.4-0.6-2-0.1c-0.6,0.5-0.6,1.4-0.1,2l1,1c0.9,0.9,1,2.3,0.3,3.4c-0.2,0.2-0.4,0.4-0.6,0.6c-0.2,0.2-0.3,0.3-0.5,0.5
			c-1,0.7-2.4,0.7-3.4-0.1l-1.1-0.9c-0.6-0.5-1.5-0.4-2,0.2c-0.5,0.6-0.4,1.5,0.2,2l1.1,0.9c1,0.8,1.3,2.1,0.9,3.2
			c-0.2,0.2-0.4,0.5-0.5,0.7c-0.1,0.2-0.3,0.4-0.4,0.6c-0.9,0.8-2.2,1-3.3,0.4l-1.2-0.7c-0.7-0.4-1.5-0.2-1.9,0.5s-0.2,1.5,0.5,1.9
			l1.2,0.7c1.1,0.6,1.6,1.9,1.3,3c-0.1,0.3-0.3,0.6-0.4,0.9c-0.1,0.2-0.2,0.5-0.3,0.7c-0.8,0.9-2,1.3-3.2,0.8l-1.3-0.5
			c-0.7-0.3-1.6,0.1-1.8,0.8c-0.3,0.7,0.1,1.5,0.8,1.8l1.3,0.5c1.2,0.5,1.8,1.6,1.8,2.8c-0.1,0.3-0.2,0.6-0.3,0.9
			c-0.1,0.2-0.1,0.5-0.2,0.7c-0.6,1-1.8,1.6-3.1,1.3l-1.4-0.3c-0.8-0.2-1.5,0.3-1.7,1.1s0.3,1.5,1.1,1.7l1.4,0.3
			c1.2,0.3,2.1,1.3,2.2,2.5c-0.1,0.3-0.1,0.6-0.2,0.9c0,0.2-0.1,0.5-0.1,0.7c-0.4,1.1-1.6,1.9-2.8,1.8l-1.4-0.1
			c-0.8-0.1-1.5,0.5-1.5,1.3c-0.1,0.8,0.5,1.5,1.3,1.5l1.4,0.1c1.3,0.1,2.3,1,2.5,2.2c0,0.3,0,0.6,0,0.9c0,0,0,0,0,0
			c0,0.2,0,0.5,0,0.7c-0.3,1.2-1.3,2.1-2.5,2.2l-1.4,0.1c-0.8,0.1-1.4,0.7-1.3,1.5c0.1,0.8,0.7,1.4,1.5,1.3l1.4-0.1
			c1.3-0.1,2.4,0.7,2.8,1.8c0.1,0.6,0.2,1.1,0.2,1.7c-0.1,1.2-1,2.2-2.2,2.5l-1.4,0.3c-0.8,0.2-1.2,0.9-1.1,1.7
			c0.2,0.8,0.9,1.2,1.7,1.1l1.4-0.3c1.2-0.3,2.4,0.3,3,1.3c0.2,0.6,0.3,1.1,0.5,1.7c0.1,1.2-0.6,2.3-1.8,2.8l-1.3,0.5
			c-0.7,0.3-1.1,1.1-0.8,1.8c0.3,0.7,1.1,1.1,1.8,0.8l1.3-0.5c1.2-0.5,2.4-0.1,3.2,0.8c0.2,0.5,0.5,1,0.8,1.6c0.2,1.2-0.3,2.4-1.3,3
			l-1.2,0.7c-0.7,0.4-0.9,1.3-0.5,1.9s1.3,0.9,1.9,0.5l1.2-0.7c1.1-0.6,2.4-0.4,3.3,0.4c0.3,0.5,0.6,0.9,1,1.4
			c0.4,1.1,0.1,2.4-0.9,3.2l-1.1,0.9c-0.6,0.5-0.7,1.4-0.2,2c0.5,0.6,1.4,0.7,2,0.2l1.1-0.9c1-0.8,2.3-0.8,3.3-0.1
			c0.4,0.4,0.8,0.8,1.1,1.2c0.6,1,0.5,2.4-0.4,3.3l-1,1c-0.5,0.6-0.5,1.5,0.1,2c0.6,0.5,1.5,0.5,2-0.1l1-1c0.8-0.9,2.2-1.1,3.2-0.6
			c0.4,0.4,0.9,0.7,1.3,1.1c0.8,0.9,0.9,2.3,0.1,3.4l-0.8,1.2c-0.4,0.6-0.3,1.5,0.4,2c0.6,0.4,1.5,0.3,2-0.4l0.8-1.2
			c0.7-1,2-1.4,3.1-1.1c0.5,0.3,1,0.6,1.5,0.9c0.9,0.8,1.2,2.1,0.6,3.3l-0.6,1.3c-0.3,0.7,0,1.6,0.7,1.9c0.7,0.3,1.6,0,1.9-0.7
			l0.6-1.3c0.5-1.1,1.7-1.7,2.9-1.6c0.6,0.2,1.1,0.4,1.7,0.7c1,0.7,1.4,1.9,1.1,3.1l-0.4,1.4c-0.2,0.7,0.2,1.5,0.9,1.8
			c0.7,0.2,1.5-0.2,1.8-0.9l0.4-1.4c0.4-1.2,1.5-1.9,2.6-2c0.6,0.1,1.2,0.3,1.7,0.4c1.1,0.5,1.7,1.7,1.5,2.9l-0.2,1.4
			c-0.1,0.8,0.4,1.5,1.2,1.6c0.8,0.1,1.5-0.4,1.6-1.2l0.2-1.4c0.2-1.2,1.2-2.2,2.3-2.4c0.6,0.1,1.1,0.1,1.7,0.1c1.2,0.4,2,1.4,2,2.7
			v1.4c0,0.8,0.6,1.4,1.4,1.4c0.8,0,1.4-0.6,1.4-1.4v-1.4c0-1.3,0.8-2.3,2-2.7c0.6,0,1.1-0.1,1.7-0.1c1.2,0.2,2.2,1.1,2.4,2.4
			l0.2,1.4c0.1,0.8,0.8,1.3,1.6,1.2c0.8-0.1,1.3-0.8,1.2-1.6l-0.2-1.4c-0.2-1.2,0.5-2.4,1.5-2.9c0.6-0.1,1.2-0.3,1.7-0.4
			c1.2,0,2.3,0.8,2.7,2l0.4,1.4c0.2,0.7,1,1.2,1.8,0.9c0.7-0.2,1.2-1,0.9-1.8l-0.4-1.4c-0.4-1.2,0.1-2.4,1-3.1
			c0.6-0.2,1.1-0.4,1.7-0.7c1.2-0.1,2.4,0.4,2.9,1.6l0.6,1.3c0.3,0.7,1.2,1,1.9,0.7c0.7-0.3,1-1.2,0.7-1.9l-0.6-1.3
			c-0.5-1.1-0.3-2.4,0.6-3.2c0.5-0.3,1-0.6,1.5-0.9c1.1-0.3,2.4,0.1,3.1,1.1l0.8,1.2c0.4,0.6,1.3,0.8,2,0.4c0.6-0.4,0.8-1.3,0.4-2
			l-0.8-1.2c-0.7-1-0.6-2.4,0.1-3.3c0.5-0.3,0.9-0.7,1.3-1.1c1.1-0.5,2.4-0.3,3.3,0.6l1,1c0.5,0.6,1.4,0.6,2,0.1
			c0.6-0.5,0.6-1.4,0.1-2l-1-1c-0.9-0.9-1-2.3-0.4-3.3c0.4-0.4,0.8-0.8,1.1-1.2c1-0.7,2.3-0.7,3.3,0.1l1.1,0.9
			c0.6,0.5,1.5,0.4,2-0.2c0.5-0.6,0.4-1.5-0.2-2l-1.1-0.9c-1-0.8-1.3-2.1-0.9-3.2c0.3-0.5,0.6-0.9,1-1.4c0.9-0.8,2.2-1,3.3-0.4
			l1.2,0.7c0.7,0.4,1.5,0.2,1.9-0.5c0.4-0.7,0.2-1.5-0.5-1.9l-1.2-0.7c-1.1-0.6-1.6-1.9-1.3-3c0.3-0.5,0.5-1,0.8-1.6
			c0.8-0.9,2-1.3,3.2-0.8l1.3,0.5c0.7,0.3,1.6-0.1,1.8-0.8c0.3-0.7-0.1-1.5-0.8-1.8l-1.3-0.5c-1.2-0.5-1.8-1.6-1.8-2.8
			c0.2-0.6,0.4-1.1,0.5-1.7c0.6-1,1.8-1.6,3.1-1.3l1.4,0.3c0.8,0.2,1.5-0.3,1.7-1.1c0.2-0.8-0.3-1.5-1.1-1.7l-1.4-0.3
			c-1.2-0.3-2.1-1.3-2.2-2.5c0.1-0.6,0.2-1.1,0.2-1.7c0.4-1.1,1.6-1.9,2.8-1.8l1.4,0.1c0.8,0.1,1.5-0.5,1.5-1.3
			C266.3,274,265.8,273.4,265,273.3z M247.3,270.1c0,22.5-17.4,40.9-39.4,42.7c-2.3-12.2-0.5-25.3,6.3-37
			c6.8-11.7,17.3-19.9,29.1-23.9C245.9,257.5,247.3,263.6,247.3,270.1z M198.6,270.1c0-3.1,2.5-5.7,5.7-5.7c3.1,0,5.7,2.5,5.7,5.7
			c0,0,0,0,0,0c0,0,0,0,0,0c0,3.1-2.5,5.7-5.7,5.7C201.2,275.9,198.6,273.3,198.6,270.1C198.6,270.2,198.6,270.2,198.6,270.1
			C198.6,270.2,198.6,270.1,198.6,270.1z M209,258.7c-15.1,1.3-29.4-3.7-40-12.9c7.8-11.2,20.7-18.5,35.3-18.5
			c14.6,0,27.5,7.3,35.3,18.4C231.4,252.9,220.8,257.7,209,258.7z M161.4,270.1c0-6.5,1.5-12.7,4.1-18.2
			c11.8,4.1,22.3,12.3,29.1,23.9c6.7,11.6,8.6,24.7,6.3,37C178.7,311,161.4,292.6,161.4,270.1z">
		<animateTransform 
           xlink:href="#cran12"
           attributeName="transform" 
           attributeType="XML"
           type="rotate"
           from="360 204.25 270.18"
           to="0  204.25 270.18" 
           dur="20s"
           begin="0s"
           repeatCount="indefinite"                  
       />
   </path>

<circle id="axe4" fill="#81AB78" cx="395" cy="336.5" r="2.5"/>
<circle id="axe3" fill="#BB7C4B" cx="438.1" cy="400.1" r="2.5"/>
<circle id="axe2" fill="#9A9590" cx="204.3" cy="270.2" r="2.5"/>
<circle id="axe1" fill="#81AB78" cx="395" cy="336.5" r="2.5"/>
</svg>
